<svg id="Capa_1" data-name="Capa 1" xmlns="http://www.w3.org/2000/svg" viewBox="0 0 310.32 310.21"><defs><style>.cls-1{fill:#e94446;}.cls-2{fill:#12212a;}.cls-3{fill:#d42a26;}.cls-4{fill:#263d4b;}</style></defs><title>analysis-icon</title><path class="cls-1" d="M199.28,252.41c-1.49,1.49-3.67,1.72-4.87.52l-22.09-22.09c-1.2-1.2-1-3.38.52-4.87h0c1.49-1.49,3.67-1.72,4.87-.52l22.09,22.09c1.2,1.2,1,3.38-.52,4.87Z" transform="translate(-57.44 -57.49)"/><rect class="cls-2" x="179.66" y="212.97" width="40.46" height="24.78" transform="translate(-158.24 149.86) rotate(-45)"/><path class="cls-3" d="M85.87,365.81l-.5.5,114-114h0c-3.28,2.8-7.19-1.62-7.19-1.62l-17.74-17.75c-4.58-4.87-1.48-7.08-1.48-7.08L59.44,339.38h0s-4.58,3.76.11,9l16.71,16.71S81.25,370.44,85.87,365.81Z" transform="translate(-57.44 -57.49)"/><path class="cls-4" d="M340,85.22a94.68,94.68,0,1,0,0,133.89A94.68,94.68,0,0,0,340,85.22ZM220.26,205a74.7,74.7,0,1,1,105.64,0A74.7,74.7,0,0,1,220.26,205Z" transform="translate(-57.44 -57.49)"/></svg>