<?xml version="1.0" standalone="no"?>
<!DOCTYPE svg PUBLIC "-//W3C//DTD SVG 20010904//EN"
 "http://www.w3.org/TR/2001/REC-SVG-20010904/DTD/svg10.dtd">
<svg version="1.0" xmlns="http://www.w3.org/2000/svg"
 width="558.000000pt" height="558.000000pt" viewBox="0 0 558.000000 558.000000"
 preserveAspectRatio="xMidYMid meet">
<metadata>
Created by potrace 1.11, written by Peter Selinger 2001-2013
</metadata>
<g transform="translate(0.000000,558.000000) scale(0.100000,-0.100000)"
fill="#000000" stroke="none">
<path d="M2609 4416 c-2 -3 -34 -6 -69 -7 -36 -1 -72 -5 -80 -8 -14 -5 -16
-63 -16 -478 0 -320 4 -470 11 -466 5 4 26 19 46 35 20 15 42 28 48 28 6 0 11
5 11 10 0 6 7 10 15 10 8 0 15 4 15 10 0 5 18 15 40 21 22 7 40 16 40 21 0 4
9 8 20 8 11 0 20 5 20 12 0 6 3 9 6 5 4 -3 23 1 43 9 20 8 37 15 39 15 1 -1 3
-1 5 0 5 1 34 7 77 15 54 11 301 10 350 0 19 -4 43 -9 52 -10 10 -1 21 -5 24
-9 4 -4 14 -7 22 -7 25 0 218 -92 250 -120 10 -8 40 -31 67 -50 28 -19 56 -42
63 -52 7 -10 20 -18 28 -18 8 0 13 -4 10 -9 -3 -5 1 -12 9 -15 12 -4 5 -15
-27 -43 -23 -21 -58 -54 -78 -73 -64 -63 -140 -130 -148 -130 -4 0 -27 18 -52
40 -25 22 -53 42 -62 46 -10 3 -18 10 -18 15 0 5 -7 9 -15 9 -8 0 -15 5 -15
11 0 6 -7 9 -15 5 -8 -3 -15 -2 -15 3 0 7 -37 25 -95 47 -94 34 -272 35 -312
2 -7 -6 -13 -8 -13 -4 0 4 -13 0 -30 -9 -16 -8 -33 -16 -37 -16 -26 -3 -88
-46 -140 -96 -157 -153 -210 -340 -159 -558 2 -11 5 -20 6 -20 1 0 3 -10 6
-23 9 -50 82 -172 122 -206 7 -6 22 -19 32 -28 50 -45 135 -98 180 -113 79
-25 220 -41 244 -27 5 3 25 6 44 8 35 3 123 33 132 45 3 3 16 10 29 14 14 4
39 20 55 36 17 16 34 29 37 29 4 0 31 23 60 50 51 48 79 62 79 40 0 -6 8 -14
17 -17 9 -4 24 -14 33 -22 9 -9 31 -27 48 -41 18 -14 44 -36 59 -49 21 -18 28
-20 31 -10 3 8 14 26 24 42 11 15 16 27 13 27 -3 0 2 12 13 28 11 15 23 37 26
50 4 12 12 22 17 22 5 0 9 5 9 10 0 6 18 44 41 85 22 41 40 77 39 81 -1 4 2
10 7 13 4 3 21 31 37 61 45 84 67 123 82 145 8 11 14 27 14 37 0 10 4 18 9 18
12 0 8 18 -12 57 -10 18 -17 36 -16 39 0 4 -3 10 -8 13 -8 5 -29 43 -71 126
-9 17 -18 32 -22 35 -3 3 -12 20 -19 38 -8 17 -18 32 -24 32 -6 0 -7 3 -4 7 4
3 -2 20 -12 37 -11 17 -33 57 -49 89 -17 31 -35 64 -42 72 -7 8 -9 15 -4 15 5
0 5 4 -1 8 -5 4 -28 41 -50 82 -22 41 -52 98 -67 125 -15 28 -43 79 -61 115
-19 36 -54 99 -77 140 -23 41 -47 87 -53 103 -6 15 -15 27 -19 27 -4 0 -8 9
-8 20 0 11 -4 20 -8 20 -4 0 -14 16 -21 35 -7 19 -16 35 -20 35 -8 0 -19 27
-17 41 1 4 -6 15 -15 25 -8 11 -26 41 -40 67 -32 65 -55 87 -87 88 -15 0 -36
2 -47 5 -11 2 -38 6 -60 9 -58 6 -521 16 -526 11z"/>
<path d="M2045 4341 c-6 -6 -21 -12 -35 -14 -44 -8 -153 -38 -220 -60 -36 -12
-67 -21 -70 -22 -3 0 -9 -3 -15 -6 -5 -4 -28 -12 -50 -19 -43 -13 -64 -21
-170 -71 -38 -18 -72 -33 -75 -34 -5 -1 -39 -19 -115 -62 -22 -12 -54 -30 -72
-39 l-32 -17 20 -29 c11 -15 18 -28 14 -28 -3 0 6 -12 20 -27 14 -15 25 -34
25 -41 0 -7 7 -15 15 -18 8 -4 15 -12 15 -19 0 -6 9 -22 20 -35 11 -13 20 -29
20 -37 0 -7 3 -13 8 -13 4 0 25 -29 47 -65 22 -36 43 -65 47 -65 4 0 8 -4 8
-10 0 -5 22 -43 48 -83 l48 -74 25 40 c13 22 29 47 34 57 6 10 17 26 25 35 8
9 19 25 25 35 5 9 25 42 43 74 19 31 38 56 44 56 5 0 7 4 4 9 -4 5 -3 11 2 13
4 1 23 29 42 61 19 31 38 57 42 57 4 0 8 4 8 9 0 13 101 171 110 171 4 0 7 6
7 13 0 14 41 77 58 89 6 4 6 8 2 8 -4 0 1 10 12 22 11 11 18 24 16 28 -3 5 2
11 11 14 8 3 13 10 10 15 -4 5 -3 11 2 13 9 4 52 63 52 72 0 9 -41 3 -59 -8
-10 -6 -12 -5 -7 2 9 14 4 16 -9 3z"/>
<path d="M3876 4222 c8 -15 14 -32 14 -39 0 -6 3 -13 8 -15 4 -1 23 -34 42
-73 19 -38 37 -72 41 -75 3 -3 12 -20 20 -37 8 -18 17 -33 21 -33 5 0 7 -3 6
-7 -1 -5 10 -32 25 -60 15 -29 27 -56 26 -59 0 -4 5 -10 12 -15 7 -4 14 -16
15 -25 2 -10 11 -24 20 -31 10 -7 15 -13 11 -13 -4 0 3 -17 15 -37 11 -21 38
-69 58 -108 20 -38 48 -88 60 -110 13 -22 30 -52 37 -67 20 -40 27 -40 43 -5
7 18 16 34 19 37 6 5 70 125 126 235 16 33 33 62 36 65 4 3 18 30 32 60 l25
54 -86 61 c-81 56 -208 135 -218 135 -2 0 -22 11 -43 24 -21 14 -42 22 -45 19
-3 -4 -6 0 -6 7 0 7 -3 10 -7 7 -3 -4 -13 -1 -22 7 -9 8 -18 15 -21 15 -3 0
-22 7 -42 15 -21 9 -42 16 -48 16 -5 0 -10 5 -10 11 0 5 -4 8 -9 4 -5 -3 -12
-1 -16 5 -3 5 -14 10 -23 10 -9 0 -28 6 -42 13 -14 8 -40 18 -57 24 l-31 11
14 -26z"/>
<path d="M4900 3505 c0 -8 -5 -15 -11 -15 -5 0 -8 -4 -5 -9 3 -5 -1 -14 -9
-21 -8 -7 -15 -16 -15 -21 0 -4 -14 -31 -30 -60 -17 -28 -32 -56 -33 -63 -1
-6 -5 -13 -8 -16 -3 -3 -25 -41 -49 -85 -103 -194 -123 -231 -133 -244 -19
-23 -26 -89 -11 -100 5 -3 22 -32 39 -63 16 -32 33 -58 37 -58 4 0 5 -7 2 -15
-4 -8 -1 -15 5 -15 6 0 11 -7 11 -15 0 -8 5 -15 12 -15 6 0 8 -3 5 -7 -4 -3
-3 -11 2 -17 6 -6 23 -36 39 -66 81 -152 104 -194 118 -215 8 -12 11 -25 7
-28 -3 -4 -1 -7 5 -7 7 0 12 -6 12 -14 0 -8 3 -16 8 -18 4 -2 21 -29 37 -60
28 -53 50 -74 50 -47 0 6 9 17 19 25 11 8 16 14 12 14 -5 0 -3 7 4 15 7 8 9
15 4 15 -5 0 -4 4 2 8 24 17 94 207 110 297 4 22 9 49 12 60 2 11 6 80 7 152
3 145 -21 297 -62 403 -4 8 -7 17 -8 20 -43 127 -185 345 -185 285z"/>
<path d="M627 3452 c-10 -10 -14 -22 -10 -25 3 -4 1 -7 -5 -7 -7 0 -12 -7 -12
-15 0 -8 -4 -15 -9 -15 -5 0 -13 -10 -17 -22 -3 -13 -11 -29 -17 -37 -6 -7
-12 -18 -13 -25 -1 -6 -13 -33 -25 -61 -13 -27 -24 -52 -24 -55 -1 -3 -8 -25
-15 -50 -8 -25 -15 -49 -15 -55 -1 -5 -5 -20 -9 -32 -4 -13 -8 -36 -8 -53 -1
-16 -4 -30 -8 -30 -3 0 -5 -15 -4 -32 1 -18 0 -37 -4 -42 -3 -6 -5 -49 -3 -96
4 -131 5 -150 13 -150 5 0 7 -3 6 -7 -5 -18 13 -113 22 -118 6 -4 8 -10 5 -14
-4 -7 8 -42 49 -146 7 -16 25 -55 41 -85 16 -30 33 -63 37 -72 4 -10 12 -18
18 -18 6 0 9 -4 6 -9 -3 -5 0 -11 8 -14 11 -5 14 30 12 209 -1 137 3 214 9
214 7 0 7 3 0 8 -6 4 -10 55 -10 117 0 62 4 113 10 117 7 5 7 8 0 8 -6 0 -10
44 -10 112 0 64 4 116 10 120 7 5 7 8 0 8 -6 0 -10 71 -9 195 1 107 0 195 -1
195 -1 0 -9 -8 -18 -18z"/>
<path d="M1070 2664 c-1 -384 -1 -755 -1 -824 0 -118 2 -126 23 -142 13 -10
29 -23 36 -28 6 -6 12 -8 12 -5 0 4 7 0 15 -7 27 -24 40 -33 80 -53 22 -11 42
-23 43 -27 2 -5 10 -8 18 -8 8 0 14 -5 14 -11 0 -5 5 -7 10 -4 6 3 10 1 10 -4
0 -6 3 -11 8 -10 15 2 52 -14 52 -22 0 -5 4 -9 9 -9 5 0 35 -12 67 -27 33 -15
61 -28 64 -29 3 0 27 -10 53 -22 27 -12 55 -22 63 -22 8 0 14 -4 14 -9 0 -5 8
-8 18 -6 9 1 23 -2 31 -8 7 -6 19 -12 27 -13 8 -1 42 -11 76 -22 100 -32 152
-46 166 -43 6 1 12 -4 12 -11 0 -8 3 -9 11 -1 7 7 11 245 12 757 1 410 6 746
10 746 5 0 5 5 1 11 -7 12 -8 459 0 466 2 2 1 17 -3 31 -5 15 -6 33 -4 40 10
28 -17 9 -44 -30 -68 -101 -189 -264 -200 -271 -7 -4 -13 -13 -13 -18 0 -6 -6
-16 -12 -24 -7 -7 -21 -23 -30 -36 -40 -55 -98 -135 -106 -144 -4 -5 -20 -27
-34 -48 -29 -43 -31 -42 -86 31 -15 21 -29 39 -32 42 -4 3 -22 28 -41 55 -18
28 -37 52 -40 55 -3 3 -25 32 -50 65 -61 83 -62 84 -81 106 -10 10 -18 24 -18
29 0 6 -4 10 -8 10 -4 0 -15 12 -24 28 -9 15 -25 37 -35 49 -44 52 -53 64 -53
69 0 2 -9 14 -20 26 l-20 22 0 -700z"/>
<path d="M4313 2422 c-6 -10 -23 -43 -39 -73 -15 -30 -36 -66 -46 -81 -11 -16
-16 -28 -11 -28 4 0 3 -4 -3 -8 -6 -4 -24 -34 -40 -67 -16 -33 -32 -61 -36
-63 -5 -2 -8 -10 -8 -18 0 -8 -5 -14 -11 -14 -5 0 -8 -4 -4 -9 3 -5 1 -12 -4
-15 -4 -3 -21 -32 -36 -63 -15 -32 -35 -66 -43 -75 -8 -10 -11 -18 -7 -18 4 0
0 -9 -10 -20 -11 -12 -20 -28 -21 -37 -2 -9 -7 -19 -12 -22 -5 -3 -13 -17 -17
-31 -4 -14 -11 -27 -15 -30 -3 -3 -13 -18 -21 -35 -47 -95 -134 -251 -143
-257 -6 -4 -8 -8 -3 -8 4 0 -3 -17 -16 -37 -37 -60 -40 -73 -14 -69 12 3 22 5
22 6 0 2 38 11 53 12 6 1 12 5 12 10 0 4 3 7 8 6 23 -5 294 105 365 149 20 13
37 20 37 16 0 -5 4 -3 8 2 4 6 27 21 52 34 25 13 53 31 63 39 9 8 17 11 17 7
0 -5 10 1 23 12 12 11 46 35 75 53 28 18 52 37 52 42 0 4 3 7 8 6 7 -3 15 3
85 64 l31 26 -28 54 c-15 29 -31 60 -36 68 -38 67 -65 116 -65 120 0 3 -5 12
-10 20 -5 8 -19 33 -31 55 -59 111 -70 130 -76 133 -5 2 -8 12 -8 23 0 10 -4
19 -8 19 -4 0 -14 16 -21 35 -7 19 -16 35 -21 35 -5 0 -10 10 -12 22 -4 28
-20 33 -35 10z"/>
<path d="M2449 2068 c-5 -12 -3 -821 2 -835 5 -15 18 -18 78 -18 39 0 71 -2
71 -5 0 -10 400 -1 557 12 7 1 10 5 7 10 -3 4 -1 8 5 8 10 0 48 64 50 83 0 4
7 15 16 23 8 9 13 20 10 25 -4 5 -2 9 3 9 8 0 36 50 32 59 -1 2 2 7 7 10 4 3
24 38 43 76 19 39 37 72 40 75 3 3 21 34 39 70 60 116 104 195 114 208 5 6 6
12 1 12 -5 0 -4 4 2 8 13 8 67 112 59 112 -3 0 -23 -11 -43 -25 -20 -14 -42
-25 -49 -25 -7 0 -13 -5 -13 -11 0 -6 -6 -9 -14 -6 -8 3 -16 2 -18 -4 -2 -7
-132 -58 -170 -67 -5 -1 -9 -2 -10 -3 -2 0 -16 -2 -33 -4 -16 -2 -41 -6 -55
-10 -26 -6 -193 -7 -245 -1 -44 5 -108 17 -125 23 -8 4 -19 5 -24 4 -4 -1 -14
4 -22 10 -8 6 -14 8 -14 4 0 -4 -6 -2 -14 4 -8 7 -23 14 -35 16 -42 8 -192 98
-238 143 -7 7 -14 12 -14 10z"/>
</g>
</svg>
