<!-- Generator: Adobe Illustrator 19.1.0, SVG Export Plug-In  -->
<svg version="1.1"
	 xmlns="http://www.w3.org/2000/svg" xmlns:xlink="http://www.w3.org/1999/xlink" xmlns:a="http://ns.adobe.com/AdobeSVGViewerExtensions/3.0/"
	 x="0px" y="0px" width="724.42px" height="423.604px" viewBox="0 0 724.42 423.604"
	 style="enable-background:new 0 0 724.42 423.604;" xml:space="preserve">
<style type="text/css">
	.st0{fill:#BE1E2D;}
</style>
<defs>
</defs>
<path class="st0" d="M502.242,0c4.206,0.702,7.982,1.278,11.738,1.968c15.099,2.774,30.038,6.233,44.806,10.443
	c1.666,0.475,2.711,1.281,3.565,2.805c25.075,44.787,50.196,89.547,75.311,134.311c0.573,1.021,1.163,2.033,1.964,3.43
	c14.673-26.158,29.123-51.919,43.745-77.986c12.237,9.896,23.308,20.623,33.299,32.644c-17.117,30.528-34.157,60.92-51.245,91.396
	c19.652,35.033,39.282,70.026,58.997,105.169c-9.336,12.773-20.01,24.249-32.02,34.922c-17.606-31.376-35.074-62.507-52.725-93.963
	c-0.622,1.019-1.089,1.73-1.504,2.471c-26.4,47.068-52.797,94.138-79.193,141.208c-4.184,7.462-8.39,14.911-12.529,22.398
	c-0.674,1.22-1.516,1.842-2.886,2.183c-15.213,3.784-30.571,6.818-46.091,9.022c-3.001,0.426-6.011,0.793-9.017,1.181
	c-0.066,0.009-0.143-0.062-0.42-0.193c0.484-0.906,0.948-1.814,1.447-2.702c41.021-73.152,82.038-146.305,123.107-219.43
	c0.944-1.681,0.916-2.893-0.014-4.548C576.231,132.047,539.936,67.337,503.637,2.629C503.221,1.887,502.839,1.127,502.242,0z"/>
<path d="M324.241,198.27c-1.013-61.818,51.602-114.712,113.727-113.791c63.243-0.956,115.51,53.156,113.895,114.278
	c1.131,61.572-52.278,115.39-115.22,113.339C377.107,312.858,323.295,261.435,324.241,198.27z M437.885,299.435
	c55.379,0.836,100.669-45.954,101.465-99.516c0.843-56.732-46.857-103.606-100.941-102.605
	c-55.117-1.309-101.972,46.214-101.331,99.8C335.319,252.168,382.302,300.187,437.885,299.435z"/>
<path d="M234.398,232.427c17.012,26.253,33.867,52.266,50.905,78.559c-0.923,0.108-1.511,0.233-2.1,0.236
	c-3.679,0.018-7.362-0.085-11.036,0.052c-1.688,0.063-2.576-0.615-3.437-1.96c-12.33-19.258-24.708-38.485-37.074-57.72
	c-3.329-5.179-6.688-10.339-9.964-15.55c-0.754-1.199-1.572-1.747-3.055-1.74c-12.397,0.06-24.794,0.033-37.191,0.039
	c-0.626,0-1.253,0.073-2.159,0.129c0,25.562,0,51.021,0,76.613c-4.331,0-8.369,0-12.507,0c0-73.873,0-147.597,0-221.5
	c0.657-0.071,1.265-0.193,1.873-0.193c18.316-0.01,36.632-0.086,54.946,0.041c5.22,0.036,10.255,1.552,15.208,3.145
	c23.393,7.525,42.382,27.16,48.107,50.722c11.201,46.094-18.679,78.527-48.011,87.797
	C237.536,231.528,236.153,231.91,234.398,232.427z M179.33,221.558c0.806,0.05,1.353,0.113,1.9,0.113
	c12.157,0.004,24.314,0.048,36.47-0.019c5.781-0.032,11.469-0.873,17.007-2.594c29.117-9.049,46.681-39.242,40.876-69.255
	c-4.493-23.226-26.788-47.248-56.975-47.582c-12.475-0.138-24.953-0.028-37.429-0.017c-0.605,0.001-1.209,0.133-1.848,0.208
	C179.33,142.169,179.33,181.738,179.33,221.558z"/>
<path d="M0,89.382c1.014,0,1.796,0,2.578,0c17.836,0,35.673-0.041,53.509,0.025c5.488,0.02,10.737,1.536,15.929,3.167
	c23.293,7.321,43.02,27.98,48.402,51.623c9.912,43.536-16.584,75.158-45.024,85.853c-7.786,2.928-15.87,4.289-24.187,4.287
	c-11.918-0.003-23.835-0.001-35.753-0.001c-0.864,0-1.728,0-2.825,0c0,25.646,0,51.044,0,76.358
	c-1.901,0.657-10.044,0.753-12.631,0.198C0,237.212,0,163.504,0,89.382z M12.677,102.194c0,39.936,0,79.57,0,119.329
	c0.75,0.058,1.369,0.146,1.989,0.147c12.08,0.007,24.159,0.034,36.238-0.013c4.569-0.018,9.073-0.661,13.544-1.641
	c20.9-4.583,44.518-25.643,45.31-55.394c0.257-9.665-0.818-19.107-5.261-27.753c-11.336-22.059-29.185-34.243-54.359-34.644
	c-11.517-0.183-23.039-0.031-34.558-0.031C14.71,102.194,13.839,102.194,12.677,102.194z"/>
</svg>