<svg xmlns="http://www.w3.org/2000/svg" viewBox="0 0 750.16 750.16"><defs><style>.cls-1{fill:#c23838;}.cls-2{fill:#383838;}</style></defs><title>systems-icon</title><g id="_ÎÓÈ_6" data-name="—ÎÓÈ_6"><path class="cls-1" d="M967,407.17,913.76,400A156.16,156.16,0,0,0,895.56,356l32.54-42.72c3.17-3.17,2.84-8.63-.74-12.2l-29.83-29.83c-3.57-3.57-9-3.9-12.2-.74l-42.72,32.54a156.08,156.08,0,0,0-43.94-18.21l-7.2-53.21c0-4.48-4.1-8.11-9.15-8.11H740.14c-5.05,0-9.15,3.63-9.15,8.11l-7.2,53.21a156.12,156.12,0,0,0-43.95,18.21l-42.72-32.54c-3.17-3.16-8.63-2.83-12.2.74l-29.83,29.83c-3.57,3.57-3.9,9-.74,12.2L626.91,356A156.1,156.1,0,0,0,608.7,400l-53.21,7.2c-4.47,0-8.1,4.1-8.1,9.15v42.19c0,5.05,3.63,9.15,8.1,9.15l53.21,7.2a156,156,0,0,0,18.2,43.94l-32.54,42.72c-3.16,3.17-2.83,8.63.74,12.2l29.83,29.83c3.57,3.57,9,3.91,12.2.74l42.71-32.54a156.12,156.12,0,0,0,43.95,18.2l7.2,53.21c0,4.48,4.1,8.11,9.15,8.11h42.19c5.05,0,9.15-3.63,9.15-8.11l7.2-53.21a156.1,156.1,0,0,0,43.94-18.2l42.72,32.54c3.17,3.17,8.63,2.84,12.2-.74l29.83-29.83c3.57-3.57,3.9-9,.74-12.2L895.56,518.8a156.13,156.13,0,0,0,18.2-43.94l53.21-7.2c4.48,0,8.1-4.1,8.1-9.15V416.32C975.08,411.27,971.45,407.17,967,407.17ZM761.23,550.82A113.41,113.41,0,1,1,874.64,437.42,113.41,113.41,0,0,1,761.23,550.82Z" transform="translate(-224.92 -223.57)"/><path class="cls-2" d="M704.87,790.93l-54.54-31.84a183.54,183.54,0,0,0,.08-55.94L705,671.46c4.87-2,7-8.09,4.71-13.58L690.83,612c-2.27-5.5-8-8.32-12.92-6.31l-61.08,16a183.61,183.61,0,0,0-39.5-39.62l16.22-61c2-4.86-.79-10.65-6.27-12.93l-45.81-19.05c-5.49-2.28-11.57-.19-13.59,4.67L496,548.31a183.62,183.62,0,0,0-55.94-.08l-31.69-54.63c-2-4.87-8.09-7-13.58-4.71l-45.86,18.92c-5.49,2.27-8.32,8-6.31,12.92l16,61.08a183.69,183.69,0,0,0-39.62,39.5L258,605.1c-4.86-2-10.65.79-12.93,6.27L226,657.18c-2.28,5.49-.19,11.57,4.67,13.6l54.53,31.85a183.62,183.62,0,0,0-.08,55.94l-54.63,31.69c-4.87,2-7,8.09-4.71,13.58l18.92,45.87c2.27,5.49,8,8.32,12.92,6.31l61.08-16a183.57,183.57,0,0,0,39.5,39.62l-16.22,61c-2,4.86.79,10.65,6.28,12.93l45.81,19.05c5.49,2.28,11.57.19,13.59-4.67l31.85-54.53a183.75,183.75,0,0,0,55.94.08l31.69,54.62c2,4.87,8.09,7,13.58,4.71l45.86-18.92c5.49-2.27,8.32-8,6.31-12.92l-16-61.08a183.58,183.58,0,0,0,39.61-39.5l61,16.22c4.86,2,10.65-.79,12.94-6.27l19.05-45.81C711.82,799,709.73,793,704.87,790.93ZM414.35,859.35a139.17,139.17,0,1,1,181.94-75.06A139.16,139.16,0,0,1,414.35,859.35Z" transform="translate(-224.92 -223.57)"/></g></svg>