<?xml version="1.0" encoding="utf-8"?>
<!-- Generator: Adobe Illustrator 19.2.0, SVG Export Plug-In  -->
<!DOCTYPE svg PUBLIC "-//W3C//DTD SVG 1.1//EN" "http://www.w3.org/Graphics/SVG/1.1/DTD/svg11.dtd" [
	<!ENTITY ns_flows "http://ns.adobe.com/Flows/1.0/">
]>
<svg version="1.1"
	 xmlns="http://www.w3.org/2000/svg" xmlns:xlink="http://www.w3.org/1999/xlink" xmlns:a="http://ns.adobe.com/AdobeSVGViewerExtensions/3.0/"
	 x="0px" y="0px" width="2508px" height="342.464px" viewBox="0 0 2508 342.464"
	 overflow="inherit" enable-background="new 0 0 2508 342.464" xml:space="preserve">
<defs>
</defs>
<g>
	<path fill="#C3050F" d="M258.24,0.038c9.821,0.326,19.641,0.664,29.415,1.781c4.208,0.481,8.41,1.032,12.628,1.398
		c2.19,0.19,3.434,1.32,4.409,3.156c4.95,9.313,9.949,18.6,14.947,27.887c21.998,40.878,44.001,81.752,66.002,122.628
		c0.114,0.211,0.205,0.438,0.343,0.632c1.318,1.845,1.177,3.58,0.069,5.571c-3.77,6.771-7.389,13.626-11.056,20.453
		c-7.562,14.077-15.118,28.157-22.677,42.236c-0.302,0.563-0.597,1.131-0.921,1.682c-0.795,1.35-0.827,1.379-2.105,0.333
		c-3.403-2.787-6.78-5.604-10.168-8.409c-2.833-2.346-5.692-4.661-8.487-7.052c-0.991-0.848-1.714-0.827-2.656,0.078
		c-2.71,2.603-5.427,5.205-8.257,7.676c-6.607,5.77-13.768,10.781-22.13,13.59c-18.492,6.212-35.925,4.02-51.9-7.466
		c-9.619-6.916-17.221-15.578-21.225-26.883c-5.201-14.686-6.234-29.59-0.263-44.298c7.952-19.59,22-32.427,42.925-37.105
		c13.115-2.932,25.544-0.689,37.401,5.351c7.026,3.579,13.3,8.246,19.262,13.359c2.816,2.414,2.83,2.448,5.469-0.058
		c8.288-7.869,16.558-15.758,24.716-23.527c0.194-0.43,0.041-0.647-0.128-0.794c-7.779-6.778-15.66-13.412-24.612-18.656
		c-11.934-6.99-24.667-11.802-38.436-13.233c-27.688-2.879-52.816,3.543-74.579,21.462c-0.593,0.489-1.031,1.228-2.031,1.357
		c-0.427-0.523-0.257-1.178-0.257-1.765c-0.01-32.235-0.009-64.469-0.008-96.704c0-0.4,0.052-0.802,0.022-1.198
		c-0.091-1.208,0.526-1.744,1.661-1.842c2.071-0.178,4.138-0.405,6.212-0.542c3.67-0.241,7.341-0.548,11.016-0.607
		c3.834-0.062,7.64-0.687,11.481-0.491C248.96,0.038,253.6,0.038,258.24,0.038z"/>
	<path fill="#C3050F" d="M2508,242.918c-1.012-0.037-2.024-0.105-3.036-0.105c-642.222-0.005-1284.445-0.005-1926.667-0.005
		c-0.64,0-1.281-0.026-1.92,0c-0.797,0.032-0.896-0.469-0.907-1.084c-0.012-0.667,0.216-1.062,0.964-1.037
		c0.799,0.026,1.6,0.001,2.4,0.001c424.788,0,849.577,0,1274.365,0c217.114,0,434.228,0,651.342-0.011
		c1.151,0,2.321,0.205,3.458-0.159C2508,241.318,2508,242.118,2508,242.918z"/>
	<path fill="#C3050F" d="M0,163.718c0.743-1.112,0.737-2.424,0.846-3.66c1.589-17.976,7.286-34.619,16.272-50.187
		c1.716-2.973,3.621-5.838,5.452-8.744c0.15-0.238,0.29-0.585,0.81-0.447c0,47.023,0,94.07,0,141.262
		c-0.705-0.287-0.951-0.894-1.281-1.388c-9.917-14.866-16.865-30.958-19.993-48.613c-0.529-2.988-0.972-5.993-1.212-9.025
		c-0.104-1.314-0.044-2.688-0.895-3.838C0,173.958,0,168.838,0,163.718z"/>
	<path fill="#C3050F" d="M2507.631,304.398c0.123-0.173,0.246-0.346,0.369-0.52c0,4.48,0,8.96,0,13.44
		c-0.117-0.174-0.234-0.347-0.352-0.516C2507.642,312.67,2507.636,308.534,2507.631,304.398z"/>
	<path fill="#C3050F" d="M68.739,112.757c5.621,7.295,11.069,14.723,16.622,22.069c5.544,7.336,11.034,14.712,16.551,22.068
		c5.563,7.417,11.129,14.831,16.935,22.567c5.659-7.629,11.092-15.167,16.573-22.669c5.518-7.553,11.031-15.11,16.547-22.666
		c5.5-7.534,11-15.067,16.499-22.598c0.83,0.49,0.529,1.112,0.528,1.612c-0.044,19.835-0.079,39.671-0.171,59.506
		c-0.097,21.032-0.259,42.064-0.373,63.096c-0.078,14.396-0.113,28.791-0.187,43.187c-0.087,16.954-0.196,33.908-0.296,50.862
		c-0.001,0.24,0.004,0.48-0.003,0.72c-0.059,2.127-0.133,2.211-2.228,1.673c-9.277-2.38-18.482-4.998-27.541-8.124
		c-23.985-8.277-46.571-19.317-67.419-33.853c-1.993-1.39-2.762-2.88-2.756-5.328c0.09-38.552,0.074-77.105,0.097-115.657
		c0.01-17.996,0.05-35.992,0.076-53.988c0.001-0.764,0-1.527,0-2.291C68.375,112.88,68.557,112.818,68.739,112.757z"/>
	<path fill="#0B0909" d="M1700.915,114.103c0.916,52.217-43.706,96.982-96.527,95.675c-51.329,0.524-96.4-43.746-94.758-97.186
		c-0.23-49.957,42.464-94.327,95.676-94.28C1658.733,18.359,1701.864,63.072,1700.915,114.103z M1679.724,114.105
		c0.806-40.543-34.36-75.343-74.493-74.402c-39.696-0.956-74.525,33.382-74.594,74.229c-0.068,40.489,33.775,74.889,74.662,74.843
		C1646.531,188.73,1680.505,153.986,1679.724,114.105z"/>
	<path fill="#0B0909" d="M1852.296,142.83c13.944,21.52,27.837,42.961,41.716,64.381c-0.511,0.779-1.21,0.476-1.784,0.477
		c-7.038,0.024-14.077-0.037-21.115,0.055c-1.638,0.021-2.576-0.498-3.459-1.879c-12.004-18.776-24.07-37.512-36.119-56.259
		c-1.76-2.738-1.759-2.739-5.086-2.739c-6.159,0-12.317-0.01-18.476,0.005c-2.627,0.006-2.324-0.33-2.326,2.262
		c-0.009,15.196-0.005,30.393-0.005,45.589c0,3.599,0.007,7.198-0.003,10.797c-0.006,2.15-0.018,2.175-2.035,2.18
		c-5.759,0.013-11.517,0.015-17.276-0.002c-1.738-0.005-1.74-0.038-1.787-1.677c-0.011-0.4-0.002-0.8-0.002-1.2
		c0-60.306,0-120.611,0-180.917c0-2.876,0.001-2.877,2.932-2.877c15.276,0,30.553,0.05,45.829-0.024
		c6.671-0.032,13.009,1.505,19.064,4.031c20.092,8.383,33.679,22.887,38.572,44.226c7.565,32.995-9.962,60.726-36.556,72.694
		C1853.739,142.244,1853.081,142.501,1852.296,142.83z M1805.644,83.794c0,13.038-0.004,26.076,0.003,39.114
		c0.002,3.225-0.273,2.742,2.857,2.751c7.119,0.021,14.238,0.036,21.357-0.005c3.924-0.023,7.827-0.394,11.59-1.569
		c32.012-9.998,39.055-48.066,18.736-68.843c-6.681-6.832-14.512-11.347-24.11-12.646c-3.677-0.498-7.342-0.318-11.012-0.355
		c-5.839-0.059-11.678-0.013-17.517-0.017c-2.108-0.002-1.899-0.078-1.903,1.976c-0.001,0.4,0,0.8,0,1.2
		C1805.644,58.198,1805.644,70.996,1805.644,83.794z"/>
	<path fill="#0B0909" d="M2176.749,114.261c0-29.998,0-59.997,0-89.995c0-0.56,0.066-1.13-0.013-1.678
		c-0.193-1.329,0.444-1.702,1.634-1.568c0.395,0.044,0.799,0.007,1.199,0.007c31.118,0,62.237-0.003,93.355,0.005
		c3.189,0.001,2.704-0.322,2.718,2.62c0.025,5.28,0.025,10.559,0,15.839c-0.012,2.538,0.523,2.488-2.374,2.489
		c-4.88,0.001-9.76,0-14.639,0c-19.199,0-38.398,0-57.597,0c-0.48,0-0.96-0.008-1.44,0.002c-1.754,0.036-1.782,0.038-1.783,1.894
		c-0.009,10.639-0.004,21.279-0.004,31.918c0,8.64-0.002,17.279,0.001,25.919c0.001,2.268-0.205,2.042,2.064,2.043
		c24.319,0.003,48.637-0.004,72.956,0.008c3.244,0.002,2.803-0.427,2.817,2.769c0.023,5.28,0.018,10.559,0.001,15.839
		c-0.008,2.729,0.356,2.466-2.379,2.468c-11.759,0.008-23.519,0.003-35.278,0.003c-12.319,0-24.639,0-36.958,0
		c-0.4,0-0.8-0.001-1.2,0c-2.201,0.005-2.024-0.196-2.025,2.091c-0.001,17.199-0.001,34.398,0,51.597
		c0,2.24,0.056,4.482-0.022,6.719c-0.042,1.179,0.381,1.568,1.521,1.469c0.953-0.083,1.918-0.017,2.878-0.017
		c23.599,0,47.198-0.005,70.796,0.006c3.133,0.001,2.65-0.362,2.664,2.653c0.026,5.52,0.017,11.039,0.002,16.559
		c-0.004,1.729-0.034,1.732-1.677,1.783c-0.4,0.012-0.8,0.002-1.2,0.002c-31.038,0-62.077,0.003-93.115-0.004
		c-3.353-0.001-2.895,0.361-2.896-2.963C2176.745,174.578,2176.749,144.419,2176.749,114.261z"/>
	<path fill="#0B0909" d="M1438.39,48.029c-5.25,4.653-10.493,9.299-15.736,13.946c-2.754-2.31-5.319-4.596-8.023-6.705
		c-9.894-7.717-21.055-12.658-33.49-14.292c-18.215-2.393-35.555,0.242-51.144,10.541c-13.969,9.229-24.47,21.427-30.281,37.323
		c-4.024,11.008-4.879,22.376-3.84,33.997c2.824,31.584,27.088,53.903,47.891,61.357c10.442,3.741,21.205,4.996,32.28,4.139
		c13.988-1.083,26.543-5.806,37.755-14.183c2.628-1.964,5.123-4.093,7.515-6.336c0.8-0.75,1.392-1.035,2.382-0.138
		c4.738,4.296,9.551,8.51,14.332,12.759c0.106,0.094,0.155,0.253,0.23,0.381c-35.277,37.293-96.141,38.445-133.566,3.804
		c-39.604-36.658-40.045-100.104-3.105-137.496C1338.04,10.229,1400.446,8.561,1438.39,48.029z"/>
	<path fill="#0B0909" d="M2496.998,21.026c-0.112,1.178-0.678,1.779-1.065,2.448c-15.441,26.675-30.879,53.351-46.379,79.992
		c-0.905,1.556-0.994,2.659-0.051,4.28c18.87,32.436,37.669,64.913,56.471,97.388c0.419,0.724,1.007,1.401,1.108,2.276
		c-0.704,0.478-1.358,0.278-1.965,0.28c-6.559,0.019-13.12-0.064-19.676,0.062c-1.729,0.033-2.552-0.655-3.342-2.023
		c-13.249-22.961-26.536-45.899-39.812-68.844c-1.799-3.109-3.585-6.226-5.391-9.332c-0.155-0.267-0.407-0.477-0.675-0.783
		c-5.551,9.609-11.062,19.145-16.569,28.683c-9.662,16.735-19.339,33.461-28.949,50.225c-0.854,1.49-1.778,2.094-3.535,2.067
		c-7.029-0.107-14.06-0.044-21.155-0.044c-0.297-1.097,0.456-1.724,0.86-2.425c12.545-21.798,25.107-43.587,37.667-65.376
		c6.22-10.791,12.408-21.601,18.7-32.349c0.853-1.457,0.785-2.463-0.039-3.885c-15.498-26.733-30.938-53.5-46.389-80.26
		c-0.39-0.676-0.774-1.355-1.158-2.027c0.694-0.546,1.348-0.342,1.948-0.344c6.639-0.018,13.279,0.045,19.917-0.052
		c1.583-0.023,2.381,0.492,3.164,1.857c11.392,19.882,22.854,39.724,34.299,59.575c0.398,0.69,0.798,1.379,1.206,2.082
		c0.866-0.495,1.105-1.39,1.532-2.127c11.437-19.764,22.877-39.527,34.244-59.331c0.867-1.511,1.768-2.095,3.531-2.062
		c6.397,0.118,12.797,0.046,19.196,0.046C2495.403,21.026,2496.117,21.026,2496.998,21.026z"/>
	<path fill="#C3050F" d="M214.467,250.425c17.114,14.708,36.922,22.483,59.423,23.429c22.463,0.944,42.921-5.031,61.587-17.869
		c0.252,1.314-0.491,2.033-0.905,2.807c-9.008,16.829-18.042,33.643-27.069,50.462c-4.986,9.289-10.024,18.55-14.91,27.891
		c-1.163,2.224-2.634,3.391-5.162,3.528c-4.148,0.224-8.28,0.717-12.427,0.982c-12.052,0.769-24.118,1.049-36.188,0.584
		c-7.586-0.292-15.162-0.808-22.726-1.48c-2.045-0.182-2.122-0.261-2.153-2.321c-0.034-2.238-0.01-4.477-0.01-6.716
		c0-25.266,0-50.531,0-75.797c0-1.739,0-3.477,0-5.216C214.107,250.614,214.287,250.519,214.467,250.425z"/>
	<path fill="#0B0909" d="M577.076,20.204c4.83,0,9.698,0.017,14.567-0.013c1.126-0.007,1.433,0.895,1.939,1.554
		c7.246,9.455,14.475,18.924,21.708,28.388c13.739,17.977,27.48,35.953,41.218,53.932c1.801,2.357,1.526,2.321,3.377-0.105
		c11.202-14.683,22.401-29.369,33.601-44.054c9.697-12.714,19.409-25.416,29.061-38.163c0.866-1.143,1.732-1.606,3.166-1.576
		c4.467,0.093,8.938,0.034,13.338,0.034c0.412,0.939,0.261,1.75,0.262,2.539c0.008,59.357,0.007,118.715,0.007,178.072
		c0,0.4-0.023,0.802,0.005,1.2c0.055,0.785-0.215,1.162-1.077,1.153c-3.27-0.032-6.541-0.013-9.947-0.013
		c0-56.561,0-112.938,0-169.389c-0.422,0.222-0.047,0.058-0.359-0.012c-0.068-0.015-0.171-0.038-0.207-0.004
		c-0.231,0.219-0.473,0.432-0.665,0.683c-22.893,29.995-45.781,59.993-68.905,90.298c-23.317-30.439-46.463-60.814-70.12-90.948
		c0,56.342,0,112.684,0,168.813c-0.615,0.743-1.21,0.546-1.73,0.55c-2.64,0.022-5.282-0.058-7.919,0.04
		c-1.311,0.049-1.719-0.44-1.564-1.65c0.05-0.394,0.008-0.799,0.008-1.199c0-58.957-0.001-117.915,0.009-176.872
		C576.849,22.435,576.677,21.388,577.076,20.204z"/>
	<path fill="#0B0909" d="M1196.577,111.491c0.653,51.117-42.358,94.061-94.038,94.015c-52.141-0.047-94.826-43.961-93.676-94.298
		c-0.951-50.68,42.758-94.552,93.715-93.542C1153.129,16.604,1197.292,59.647,1196.577,111.491z M1185.805,111.452
		c0.982-44.956-37.858-83.69-82.363-83.114c-45.533-1.352-83.731,37.742-84.1,82.314c-0.384,46.4,38.935,85.031,83.175,83.923
		C1147.399,195.747,1186.761,156.817,1185.805,111.452z"/>
	<path fill="#0B0909" d="M2032.329,124.772c0,26.639,0,53.279,0,79.918c0,0.48-0.052,0.967,0.01,1.439
		c0.175,1.323-0.483,1.601-1.666,1.593c-5.919-0.041-11.84-0.045-17.759,0.002c-1.27,0.01-1.746-0.453-1.608-1.687
		c0.062-0.553,0.01-1.119,0.01-1.679c0-53.119,0.004-106.238-0.007-159.356c-0.001-3.526,0.468-3.007-3.053-3.013
		c-12.8-0.022-25.599-0.009-38.399-0.009c-0.56,0-1.122-0.034-1.68,0.004c-0.964,0.066-1.212-0.409-1.2-1.297
		c0.037-2.879,0.014-5.76,0.014-8.64c0-2.96-0.005-5.92,0.001-8.88c0.005-2.311-0.256-2.132,2.237-2.141c0.24-0.001,0.48,0,0.72,0
		c34.639,0,69.278-0.002,103.917,0.004c3.442,0.001,2.959-0.33,2.973,2.889c0.022,5.28,0.014,10.56,0.002,15.84
		c-0.005,2.087,0.445,2.226-2.195,2.224c-13.12-0.007-26.24-0.014-39.359,0.004c-3.44,0.005-2.948-0.439-2.95,2.867
		C2032.322,71.493,2032.329,98.133,2032.329,124.772z"/>
	<path fill="#C3050F" d="M482.147,237.743c-1.588-2.932-3.072-5.666-4.549-8.403c-11.882-22.008-23.739-44.029-35.682-66.003
		c-1.154-2.124-1.22-3.802-0.036-5.974c10.94-20.064,21.767-40.189,32.635-60.292c0.329-0.608,0.484-1.362,1.208-1.699
		C507.04,134.273,511.93,192.783,482.147,237.743z"/>
	<path fill="#C3050F" d="M350.025,328.188c21.219-39.378,42.407-78.699,63.561-117.956c0.943,0.113,1.032,0.735,1.28,1.195
		c11.264,20.879,22.524,41.76,33.781,62.642c1.026,1.904,1.019,1.91-0.833,3.5c-16.908,14.523-35.727,26.032-55.904,35.385
		c-12.975,6.015-26.33,11.034-40.055,15.061c-0.38,0.112-0.759,0.235-1.147,0.314C350.57,328.358,350.407,328.272,350.025,328.188z"
		/>
	<path fill="#C3050F" d="M81.171,45.289c30.595-19.032,63.601-31.11,98.521-38.222c0.106,0.15,0.212,0.301,0.318,0.451
		c-20.37,31.6-40.741,63.201-61.32,95.124C106.144,83.463,93.742,64.505,81.171,45.289z"/>
	<path fill="#0B0909" d="M880.533,117.247c5.367-9.292,10.679-18.48,15.983-27.674c12.928-22.41,25.87-44.811,38.737-67.256
		c0.915-1.595,1.852-2.264,3.716-2.154c3.027,0.178,6.072,0.048,9.161,0.048c0.111,1.054-0.584,1.693-1.001,2.416
		C927.068,57.425,907,92.219,886.891,126.99c-0.876,1.514-1.268,2.992-1.265,4.729c0.038,22.799,0.025,45.598,0.025,68.397
		c0,0.48-0.042,0.964,0.008,1.439c0.114,1.072-0.16,1.599-1.413,1.555c-2.637-0.093-5.279-0.053-7.919-0.015
		c-0.896,0.013-1.355-0.241-1.265-1.211c0.051-0.555,0.008-1.119,0.008-1.679c0-22.959-0.013-45.918,0.028-68.877
		c0.003-1.585-0.389-2.921-1.171-4.274c-20.105-34.773-40.186-69.56-60.258-104.352c-0.389-0.675-0.934-1.292-1.067-2.288
		c0.789-0.378,1.658-0.18,2.476-0.19c2.479-0.032,4.963,0.068,7.438-0.044c1.306-0.059,1.986,0.393,2.628,1.522
		c4.737,8.329,9.553,16.612,14.341,24.912c13.207,22.894,26.411,45.789,39.626,68.678
		C879.463,115.901,879.697,116.603,880.533,117.247z"/>
	<path fill="#C3050F" d="M413.955,110.751c-1.205-1.448-48.836-89.945-49.576-92.117c0.58-0.271,1.086,0.094,1.562,0.262
		c26.527,9.384,51.357,21.962,73.695,39.22c0.19,0.147,0.383,0.289,0.569,0.441c1.392,1.14,1.421,1.156,0.58,2.73
		c-2.899,5.426-5.821,10.841-8.733,16.26c-5.636,10.487-11.268,20.975-16.915,31.456
		C414.805,109.618,414.617,110.35,413.955,110.751z"/>
	<path fill="#0B0909" d="M746.451,292.411c0,1.344,0,2.106,0,2.869c0,9.118,0,18.236,0,27.355c0,0.56-0.018,1.12-0.002,1.68
		c0.021,0.729-0.372,0.986-1.039,0.985c-2.24-0.003-4.479-0.02-6.719,0.01c-0.97,0.013-1.256-0.482-1.209-1.343
		c0.022-0.399,0.003-0.8,0.003-1.2c0-14.397,0-28.794,0-43.191c0-0.24-0.005-0.48,0.001-0.72c0.047-1.787,0.048-1.798,1.888-1.816
		c1.599-0.016,3.209,0.103,4.796-0.035c1.45-0.125,2.313,0.417,3.146,1.576c6.158,8.564,12.382,17.081,18.585,25.613
		c2.584,3.555,5.165,7.112,7.752,10.666c0.269,0.369,0.565,0.718,0.846,1.074c0.849-0.468,1.183-1.229,1.641-1.861
		c8.488-11.712,16.986-23.416,25.401-35.18c0.999-1.397,2.021-2.077,3.728-1.875c1.797,0.213,3.635-0.266,5.423,0.268
		c0.372,1.739,0.162,3.5,0.165,5.249c0.022,13.277,0.012,26.555,0.012,39.832c0,0.56-0.036,1.122,0.007,1.679
		c0.071,0.924-0.309,1.291-1.243,1.27c-1.839-0.042-3.679-0.003-5.519-0.014c-2.107-0.012-2.126-0.02-2.129-2.056
		c-0.01-6.319-0.004-12.638-0.004-18.956c0-3.744,0-7.488,0-11.469c-1.075,0.362-1.389,1.217-1.847,1.85
		c-6.889,9.515-13.794,19.02-20.586,28.604c-1.105,1.559-2.262,2.27-4.131,2.049c-1.65-0.195-3.552,0.546-4.922-0.34
		c-1.259-0.814-2.021-2.419-2.957-3.709c-6.433-8.859-12.852-17.729-19.282-26.59C747.809,294.067,747.31,293.49,746.451,292.411z"
		/>
	<path fill="#0B0909" d="M2390.137,315.964c0.808-0.582,1.216-1.377,1.727-2.083c8.437-11.648,16.894-23.282,25.27-34.974
		c0.99-1.382,1.972-2.121,3.704-1.892c1.796,0.237,3.644-0.282,5.432,0.29c0.386,1.732,0.165,3.488,0.168,5.23
		c0.024,13.276,0.013,26.552,0.013,39.828c0,0.56-0.033,1.122,0.007,1.679c0.067,0.927-0.328,1.287-1.254,1.272
		c-2.159-0.036-4.319-0.032-6.478-0.001c-0.944,0.014-1.287-0.424-1.245-1.31c0.027-0.559,0.004-1.119,0.004-1.679
		c0-8.877,0-17.755,0-26.632c0-0.875,0-1.749,0-2.616c-0.895-0.157-0.987,0.555-1.272,0.947
		c-6.988,9.64-13.997,19.266-20.894,28.971c-1.177,1.656-2.385,2.239-4.451,2.425c-3.655,0.33-5.731-1.09-7.758-4.02
		c-6.226-9.001-12.78-17.776-19.209-26.637c-0.465-0.64-0.943-1.271-1.433-1.93c-0.706,0.508-0.402,1.197-0.404,1.765
		c-0.022,9.277-0.002,18.554-0.024,27.832c-0.007,3.167,0.519,2.855-2.982,2.875c-1.52,0.009-3.04-0.028-4.558,0.011
		c-0.981,0.026-1.533-0.279-1.433-1.364c0.044-0.476,0.007-0.959,0.007-1.439c0-14.236,0-28.471,0-42.707
		c0-0.4,0.043-0.805-0.007-1.199c-0.167-1.313,0.473-1.644,1.673-1.588c1.676,0.078,3.366,0.121,5.035-0.011
		c1.45-0.114,2.327,0.439,3.152,1.59c5.167,7.209,10.395,14.374,15.606,21.55c3.474,4.784,6.954,9.565,10.436,14.343
		C2389.339,314.991,2389.743,315.467,2390.137,315.964z"/>
	<path fill="#0B0909" d="M1563.95,292.866c-3.59,4.975-7.178,9.95-10.769,14.923c-3.789,5.248-7.623,10.463-11.341,15.761
		c-0.933,1.33-1.935,1.959-3.556,1.777c-1.105-0.125-2.247-0.119-3.354,0c-1.462,0.157-2.325-0.48-3.15-1.627
		c-6.857-9.537-13.766-19.037-20.662-28.546c-0.542-0.747-1.099-1.484-2.062-2.146c0,0.596,0,1.193,0,1.789
		c0,9.437,0.003,18.874-0.003,28.311c-0.001,2.175-0.015,2.182-2.248,2.193c-1.839,0.009-3.679-0.025-5.518,0.01
		c-0.911,0.017-1.339-0.32-1.264-1.258c0.038-0.477,0.006-0.959,0.006-1.439c0-14.316,0-28.631,0-42.947
		c0-0.56,0.015-1.12,0.002-1.679c-0.017-0.729,0.374-0.958,1.045-0.954c2.239,0.014,4.479,0.042,6.718-0.012
		c1.125-0.027,1.465,0.837,1.96,1.515c3.958,5.421,7.897,10.855,11.843,16.285c4.698,6.464,9.395,12.927,14.097,19.388
		c0.419,0.576,0.871,1.128,1.333,1.723c0.743-0.371,1.026-1.042,1.425-1.592c8.627-11.905,17.265-23.802,25.839-35.744
		c0.84-1.17,1.686-1.723,3.134-1.59c1.428,0.131,2.877,0.011,4.316,0.034c1.629,0.026,1.629,0.042,1.668,1.765
		c0.002,0.08,0,0.16,0,0.24c0,14.716,0.003,29.431-0.002,44.147c-0.001,2.083-0.018,2.092-2.073,2.108
		c-1.759,0.013-3.521-0.052-5.278,0.021c-1.247,0.051-1.656-0.405-1.644-1.661c0.056-5.598,0.024-11.196,0.024-16.795
		c0-4.618,0-9.237,0-13.855C1564.274,292.962,1564.112,292.914,1563.95,292.866z"/>
	<path fill="#0B0909" d="M1372.013,277.037c4.956,0,9.911-0.013,14.867,0.005c3.129,0.012,6.216,0.397,9.181,1.429
		c4.817,1.676,6.907,4.636,6.913,9.714c0.01,8.712,0.011,17.424,0,26.136c-0.007,4.88-1.999,7.704-6.599,9.441
		c-3.187,1.204-6.536,1.491-9.884,1.516c-9.671,0.071-19.342,0.066-29.013,0.001c-3.026-0.02-6.057-0.249-8.983-1.197
		c-1.067-0.346-2.103-0.739-3.069-1.302c-2.843-1.657-4.441-4.091-4.448-7.427c-0.02-9.431-0.02-18.863-0.001-28.294
		c0.008-3.988,2.144-6.569,5.648-8.121c3.188-1.412,6.595-1.847,10.041-1.887C1361.782,276.992,1366.898,277.036,1372.013,277.037z
		 M1371.817,317.867c0,0.023,0,0.045,0,0.068c4.713,0,9.426,0.023,14.139-0.012c1.748-0.013,3.51,0.034,5.212-0.553
		c2.009-0.694,2.461-1.169,2.467-3.252c0.024-8.627,0.026-17.254-0.002-25.881c-0.006-2.027-0.479-2.625-2.49-3.245
		c-1.839-0.567-3.753-0.707-5.674-0.707c-9.026,0-18.053,0.013-27.079-0.012c-1.69-0.005-3.359,0.188-4.998,0.496
		c-2.499,0.47-3.176,1.396-3.178,3.937c-0.007,8.148-0.004,16.296-0.002,24.443c0.001,3.12,0.628,3.919,3.648,4.531
		c0.699,0.142,1.428,0.178,2.144,0.18C1361.274,317.873,1366.545,317.867,1371.817,317.867z"/>
	<path fill="#0B0909" d="M2149.198,317.856c6.877,0,13.753-0.009,20.629,0.008c1.22,0.003,2.393-0.239,3.515-0.645
		c1.302-0.471,2.08-1.338,2.028-2.883c-0.081-2.396-0.001-4.797-0.027-7.196c-0.02-1.868-0.545-2.597-2.254-3.206
		c-1.843-0.656-3.769-0.631-5.686-0.632c-8.396-0.006-16.793,0.005-25.189-0.007c-2.881-0.004-5.742-0.254-8.563-0.865
		c-1.328-0.288-2.598-0.738-3.822-1.34c-2.945-1.45-4.773-3.728-5.094-7.03c-0.262-2.704-0.281-5.422,0.05-8.13
		c0.371-3.027,2.05-5.119,4.672-6.538c3.176-1.72,6.667-2.282,10.176-2.308c13.434-0.099,26.868-0.049,40.302-0.042
		c1.634,0.001,1.645,0.039,1.668,1.758c0.018,1.359-0.042,2.721,0.019,4.078c0.043,0.975-0.186,1.538-1.302,1.416
		c-0.553-0.061-1.118-0.01-1.678-0.01c-12.075,0-24.15,0.013-36.225-0.014c-1.772-0.004-3.522,0.17-5.245,0.485
		c-2.496,0.457-3.183,1.39-3.208,3.919c-0.011,1.119-0.023,2.24,0.003,3.358c0.048,2.008,0.51,2.611,2.477,3.261
		c2.164,0.715,4.42,0.635,6.646,0.645c8.156,0.038,16.313-0.011,24.47,0.028c3.194,0.016,6.381,0.193,9.471,1.169
		c1.148,0.363,2.25,0.806,3.274,1.427c2.735,1.659,4.233,4.065,4.262,7.296c0.028,3.198,0.024,6.397,0.001,9.596
		c-0.024,3.243-1.548,5.616-4.298,7.264c-2.166,1.298-4.567,1.915-7.022,2.197c-2.137,0.245-4.29,0.41-6.457,0.404
		c-12.555-0.033-25.11-0.016-37.664-0.016c-0.56,0-1.121-0.022-1.679,0.001c-0.798,0.033-1.164-0.308-1.152-1.124
		c0.023-1.679,0.036-3.359-0.006-5.037c-0.024-0.968,0.434-1.271,1.315-1.211c0.478,0.033,0.959,0.004,1.439,0.004
		c6.717,0,13.434,0,20.151,0C2149.198,317.909,2149.198,317.882,2149.198,317.856z"/>
	<path fill="#0B0909" d="M1984.008,317.856c6.877,0,13.753,0.004,20.629-0.006c0.637-0.001,1.286-0.032,1.909-0.152
		c3.043-0.59,3.681-1.386,3.685-4.505c0.003-1.999,0.024-3.999-0.006-5.997c-0.029-1.949-0.607-2.68-2.459-3.312
		c-1.776-0.605-3.619-0.577-5.454-0.579c-8.476-0.009-16.953,0.021-25.429-0.017c-3.276-0.015-6.537-0.258-9.7-1.241
		c-5.552-1.725-7.699-4.59-7.706-10.326c-0.001-1.359-0.009-2.719,0.001-4.078c0.032-4.205,2.007-7.094,5.866-8.757
		c2.835-1.222,5.837-1.765,8.861-1.785c13.594-0.093,27.188-0.043,40.782-0.083c1.123-0.003,1.603,0.289,1.518,1.476
		c-0.13,1.822,0.128,3.658-0.143,5.48c-1.769,0.674-3.608,0.282-5.407,0.29c-11.195,0.045-22.391,0.036-33.586,0.008
		c-1.691-0.004-3.356,0.172-5.01,0.431c-2.807,0.441-3.499,1.306-3.512,4.12c-0.006,1.12,0.06,2.243-0.015,3.358
		c-0.111,1.637,0.737,2.538,2.158,3.036c0.981,0.343,1.992,0.523,3.043,0.582c5.754,0.323,11.512,0.073,17.267,0.159
		c5.274,0.08,10.554-0.22,15.823,0.251c2.563,0.229,5.043,0.79,7.345,1.965c3.189,1.628,4.947,4.206,4.978,7.841
		c0.027,3.118,0.024,6.237,0.002,9.356c-0.025,3.444-1.685,5.915-4.646,7.553c-2.125,1.175-4.455,1.764-6.837,2.015
		c-2.3,0.243-4.613,0.391-6.938,0.384c-12.395-0.036-24.79-0.017-37.184-0.017c-0.56,0-1.12-0.012-1.679-0.005
		c-0.717,0.009-0.98-0.378-0.977-1.048c0.007-1.519-0.019-3.039,0.003-4.558c0.026-1.71,0.042-1.743,1.71-1.751
		c4.238-0.019,8.477-0.007,12.715-0.007c2.799,0,5.598,0,8.396,0C1984.008,317.909,1984.008,317.882,1984.008,317.856z"/>
	<path fill="#0B0909" d="M2507.631,304.398c0.005,4.136,0.011,8.273,0.017,12.404c-0.015,2.695-1.576,4.422-3.686,5.776
		c-2.197,1.409-4.686,2.04-7.222,2.336c-2.136,0.249-4.29,0.412-6.457,0.406c-12.555-0.033-25.11-0.016-37.666-0.016
		c-0.56,0-1.121-0.026-1.679,0.005c-0.787,0.043-1.217-0.253-1.166-1.09c0.01-0.159-0.009-0.32-0.001-0.48
		c0.083-1.827-0.732-4.13,0.318-5.355c1.092-1.272,3.45-0.418,5.244-0.425c11.756-0.045,23.511-0.013,35.267-0.034
		c1.909-0.003,3.835,0.074,5.697-0.555c2.043-0.69,2.509-1.271,2.527-3.459c0.018-2.239,0.026-4.479-0.002-6.717
		c-0.025-1.974-0.573-2.668-2.449-3.312c-1.775-0.609-3.619-0.576-5.454-0.578c-8.477-0.011-16.954,0.022-25.43-0.018
		c-3.357-0.016-6.701-0.263-9.935-1.295c-5.333-1.702-7.481-4.641-7.491-10.268c-0.002-1.359-0.013-2.719,0.003-4.078
		c0.05-4.197,2.012-7.106,5.875-8.758c2.987-1.277,6.145-1.802,9.34-1.818c13.354-0.069,26.709-0.035,40.064-0.027
		c1.698,0.001,1.745,0.036,1.731,1.688c-0.014,1.747,0.703,3.954-0.27,5.116c-1.022,1.221-3.298,0.409-5.016,0.416
		c-11.276,0.044-22.551,0.036-33.827,0.008c-1.69-0.004-3.357,0.168-5.011,0.43c-2.77,0.438-3.529,1.369-3.556,4.127
		c-0.012,1.199,0.014,2.399,0.001,3.599c-0.016,1.397,0.742,2.245,1.964,2.703c1.045,0.392,2.13,0.613,3.266,0.669
		c6.794,0.336,13.592,0.069,20.387,0.157c4.235,0.055,8.476-0.17,12.704,0.253c2.799,0.28,5.526,0.847,7.967,2.319
		C2505.895,299.859,2507.566,301.601,2507.631,304.398z"/>
	<path fill="#0B0909" d="M1468.261,303.561c3.8,7.259,7.484,14.296,11.374,21.725c-3.36,0-6.35,0.031-9.339-0.018
		c-1.003-0.016-1.124-1.032-1.475-1.695c-3.098-5.852-6.236-11.685-9.196-17.607c-0.84-1.681-1.823-2.191-3.66-2.157
		c-6.634,0.123-13.271,0.048-19.907,0.048c-2.234,0-2.019-0.134-2.021,2.099c-0.006,5.757,0.006,11.513-0.006,17.269
		c-0.004,2.053-0.025,2.062-2.14,2.074c-1.999,0.012-3.998-0.027-5.996,0.012c-0.948,0.018-1.295-0.391-1.23-1.292
		c0.034-0.477,0.005-0.959,0.005-1.439c0-14.311,0-28.622,0-42.934c0-0.4,0.031-0.802-0.006-1.199
		c-0.091-0.975,0.204-1.547,1.311-1.421c0.395,0.045,0.799,0.007,1.198,0.007c12.153,0,24.305,0.008,36.458-0.006
		c2.731-0.003,5.415,0.347,8.062,0.976c1.397,0.332,2.742,0.846,3.973,1.606c2.705,1.67,4.278,4.025,4.312,7.273
		c0.024,2.318,0.018,4.637,0.005,6.956c-0.019,3.543-1.716,6.055-4.785,7.71C1473.135,302.663,1470.898,303.198,1468.261,303.561z
		 M1449.83,296.621c4.318,0,8.635,0.007,12.953-0.003c1.922-0.004,3.835-0.17,5.664-0.794c1.858-0.634,2.266-1.229,2.299-3.135
		c0.026-1.519-0.052-3.041,0.021-4.557c0.077-1.621-0.714-2.507-2.155-3.033c-1.603-0.585-3.283-0.775-4.944-0.785
		c-9.354-0.056-18.709-0.001-28.063-0.06c-1.349-0.008-1.611,0.502-1.588,1.688c0.06,3.037,0.071,6.077-0.004,9.114
		c-0.032,1.284,0.438,1.608,1.666,1.591C1440.395,296.582,1445.113,296.62,1449.83,296.621z"/>
	<path fill="#0B0909" d="M1239.525,303.568c3.811,7.286,7.486,14.314,11.362,21.723c-3.334,0-6.256,0.002-9.177-0.001
		c-1.046-0.001-1.213-0.917-1.568-1.587c-2.205-4.158-4.385-8.331-6.575-12.497c-1.076-2.047-2.207-4.068-3.215-6.148
		c-0.448-0.925-1.01-1.229-2.03-1.223c-7.195,0.044-14.391,0.067-21.585-0.014c-1.42-0.016-1.51,0.592-1.503,1.694
		c0.034,5.756,0.025,11.512,0.011,17.268c-0.006,2.667,0.397,2.518-2.62,2.52c-1.679,0.001-3.363-0.079-5.035,0.025
		c-1.334,0.083-1.668-0.472-1.598-1.685c0.082-1.434,0.019-2.877,0.019-4.316c0-12.871,0-25.743,0-38.614c0-0.4-0.001-0.799,0-1.199
		c0.012-2.857-0.167-2.471,2.401-2.473c10.713-0.009,21.426-0.008,32.139-0.001c3.274,0.002,6.55-0.123,9.806,0.434
		c2.054,0.351,4.041,0.856,5.911,1.796c3.319,1.668,4.97,4.379,5.051,8.055c0.044,1.998,0.011,3.997,0.009,5.996
		c-0.005,4.116-1.952,6.965-5.671,8.638C1243.828,302.78,1241.896,303.245,1239.525,303.568z M1220.984,296.621
		c4.315,0,8.63,0.011,12.945-0.005c1.998-0.008,3.977-0.185,5.899-0.805c1.473-0.475,2.254-1.438,2.259-2.996
		c0.005-1.598,0.014-3.196-0.005-4.794c-0.017-1.439-0.724-2.387-2.085-2.886c-1.675-0.613-3.431-0.816-5.174-0.826
		c-9.349-0.051-18.698,0.007-28.047-0.06c-1.387-0.01-1.562,0.548-1.543,1.687c0.052,3.036,0.071,6.074-0.008,9.108
		c-0.032,1.253,0.357,1.623,1.617,1.604C1211.554,296.577,1216.27,296.62,1220.984,296.621z"/>
	<path fill="#0B0909" d="M972.116,313.743c0-7.614,0-14.727,0-21.84c0-4.317-0.011-8.634,0.005-12.951
		c0.007-1.876,0.031-1.893,1.789-1.912c1.838-0.02,3.681,0.068,5.515-0.029c1.313-0.069,1.658,0.481,1.597,1.678
		c-0.074,1.435-0.017,2.877-0.017,4.316c0,13.111,0,26.221,0,39.332c0,0.56-0.032,1.121,0.006,1.678
		c0.063,0.924-0.354,1.303-1.261,1.291c-1.758-0.023-3.518-0.031-5.276,0.002c-1.18,0.022-1.876-0.822-2.678-1.433
		c-10.482-7.992-20.946-16.006-31.415-24.015c-4.188-3.204-8.374-6.408-12.564-9.609c-0.496-0.379-1.012-0.733-1.554-1.123
		c-0.572,0.605-0.319,1.268-0.32,1.849c-0.02,10.712-0.015,21.425-0.014,32.137c0,2.13,0.287,2.209-2.238,2.191
		c-1.759-0.012-3.518-0.035-5.276,0.007c-0.949,0.023-1.298-0.388-1.238-1.288c0.032-0.478,0.004-0.959,0.004-1.439
		c0-14.31,0-28.62,0-42.929c0-0.56,0.013-1.119,0.005-1.679c-0.011-0.723,0.375-0.954,1.049-0.947
		c1.839,0.019,3.678,0.029,5.516-0.003c0.908-0.016,1.454,0.592,2.074,1.069c11.077,8.527,22.147,17.063,33.22,25.594
		C963.267,306.943,967.493,310.188,972.116,313.743z"/>
	<path fill="#0B0909" d="M1688.524,288.899c0,3.841,0,7.196,0,10.552c0,7.919,0.005,15.838-0.003,23.756
		c-0.002,2.068-0.022,2.076-2.123,2.093c-1.6,0.013-3.2,0.016-4.799-0.001c-1.983-0.021-2.004-0.031-2.01-1.948
		c-0.014-3.919-0.004-7.839-0.004-11.758c0-10.638,0-21.277,0-31.915c0-0.56,0.01-1.12,0.003-1.68
		c-0.009-0.72,0.376-0.969,1.051-0.964c1.92,0.015,3.839,0.002,5.759,0.009c0.979,0.004,1.551,0.763,2.227,1.282
		c12.673,9.743,25.333,19.502,37.995,29.259c2.279,1.756,4.551,3.521,6.839,5.266c0.29,0.221,0.554,0.607,1.211,0.344
		c0-0.698,0-1.47,0-2.241c0-10.398,0-20.797,0-31.195c0-0.56,0.018-1.12,0-1.68c-0.021-0.671,0.212-1.051,0.953-1.046
		c2.24,0.015,4.48,0.026,6.719-0.006c0.865-0.012,1.109,0.41,1.072,1.175c-0.023,0.479-0.002,0.96-0.002,1.44
		c0,14.318,0,28.636,0,42.953c0,0.48-0.031,0.962,0.006,1.439c0.071,0.921-0.315,1.299-1.248,1.277
		c-1.679-0.04-3.361-0.052-5.038,0.004c-1.086,0.037-1.772-0.636-2.523-1.21c-13.716-10.484-27.428-20.974-41.142-31.461
		C1691.958,291.492,1690.441,290.352,1688.524,288.899z"/>
	<path fill="#0B0909" d="M1134.037,296.176c12.829,0,25.368,0,38.065,0c0,2.375,0,4.643,0,7.185c-12.606,0-25.257,0-38.063,0
		c0,4.652,0.021,9.036-0.016,13.419c-0.009,1.012,0.483,1.17,1.325,1.165c3.518-0.024,7.036-0.009,10.555-0.009
		c8.636,0,17.272-0.004,25.908,0.002c2.605,0.002,2.557-0.356,2.545,2.633c-0.005,1.199-0.018,2.399-0.001,3.598
		c0.011,0.813-0.372,1.163-1.167,1.134c-0.479-0.018-0.959,0-1.439,0c-14.793,0-29.586,0-44.379,0.001
		c-3.183,0-2.656,0.066-2.659-2.739c-0.014-14.233-0.007-28.466-0.007-42.7c0-0.56,0.025-1.121-0.003-1.679
		c-0.039-0.796,0.273-1.202,1.11-1.152c0.478,0.028,0.959,0.002,1.439,0.002c14.873,0,29.746,0,44.619,0
		c0.4,0,0.802,0.028,1.199-0.005c0.905-0.076,1.316,0.284,1.295,1.227c-0.038,1.678-0.021,3.358-0.006,5.037
		c0.006,0.716-0.341,1.002-1.024,0.987c-0.559-0.013-1.119,0.002-1.679,0.002c-11.594,0-23.189,0-34.783,0
		c-0.48,0-0.963,0.039-1.438-0.007c-1.026-0.1-1.421,0.316-1.409,1.359C1134.062,289.07,1134.037,292.505,1134.037,296.176z"/>
	<path fill="#0B0909" d="M2306.776,277.036c7.599,0,15.198-0.005,22.797,0.004c1.846,0.002,1.858,0.024,1.881,1.788
		c0.018,1.439-0.025,2.88,0.014,4.319c0.022,0.791-0.213,1.206-1.074,1.142c-0.557-0.042-1.119-0.004-1.679-0.004
		c-11.598,0-23.196,0-34.795,0c-0.56,0-1.12,0.016-1.68,0c-0.649-0.018-1.094,0.175-1.094,0.921c0,3.359,0.003,6.719-0.009,10.078
		c-0.002,0.585,0.231,0.9,0.828,0.905c0.64,0.005,1.28,0.006,1.92,0.006c11.198,0,22.397,0.001,33.595-0.001
		c2.127,0,2.005-0.114,1.96,1.906c-0.037,1.668,0.698,3.829-0.26,4.876c-1.087,1.187-3.315,0.397-5.038,0.404
		c-10.318,0.044-20.637,0.022-30.955,0.021c-2.227,0-2.053-0.104-2.05,2.103c0.004,3.359-0.006,6.719,0.003,10.078
		c0.006,2.34-0.361,2.358,2.303,2.356c11.438-0.006,22.876-0.003,34.314-0.003c3.7,0,3.7,0,3.7,3.611c0,3.756,0,3.757-3.794,3.757
		c-14.398,0-28.795,0.001-43.193-0.001c-2.904,0-2.597,0.195-2.598-2.548c-0.005-14.398-0.003-28.796-0.002-43.193
		c0-0.56,0-1.12,0.008-1.68c0.008-0.589,0.318-0.856,0.903-0.844c0.56,0.011,1.12-0.001,1.68-0.001
		C2291.899,277.036,2299.338,277.036,2306.776,277.036z"/>
	<path fill="#0B0909" d="M1865.917,277.036c7.6,0,15.2,0.003,22.8-0.002c2.112-0.001,2.07-0.167,2.056,2.104
		c-0.007,1.2-0.094,2.409,0.023,3.598c0.132,1.344-0.468,1.574-1.647,1.569c-8.08-0.039-16.16-0.02-24.24-0.02
		c-4.24,0-8.48-0.012-12.72,0.006c-1.691,0.007-1.719,0.039-1.732,1.71c-0.022,2.88,0.066,5.762-0.038,8.639
		c-0.048,1.326,0.452,1.583,1.645,1.578c8.72-0.04,17.44-0.021,26.16-0.021c3.04,0,6.081,0.054,9.119-0.026
		c1.202-0.032,1.522,0.398,1.446,1.519c-0.086,1.274-0.025,2.559-0.018,3.839c0.011,2.016,0.089,1.878-2.02,1.876
		c-6-0.004-12-0.001-18-0.001c-5.52,0-11.04-0.009-16.56,0.005c-1.699,0.004-1.726,0.033-1.734,1.675
		c-0.018,3.68-0.016,7.36-0.001,11.04c0.007,1.777,0.03,1.807,1.864,1.809c11.84,0.01,23.68-0.003,35.519,0.01
		c3.362,0.004,2.932-0.388,2.91,2.935c-0.009,1.406,0.636,3.164-0.359,4.13c-0.898,0.872-2.6,0.282-3.943,0.284
		c-14,0.022-27.999,0.014-41.999,0.014c-0.48,0-0.96,0.008-1.44-0.002c-1.791-0.038-1.821-0.041-1.822-1.884
		c-0.009-14.8-0.008-29.6-0.001-44.399c0.001-1.957,0.022-1.977,1.931-1.979C1850.717,277.031,1858.317,277.036,1865.917,277.036z"
		/>
	<path fill="#0B0909" d="M1051.102,301.09c0-7.359-0.005-14.717,0.004-22.076c0.002-1.952,0.022-1.973,1.935-1.974
		c12.398-0.006,24.796-0.022,37.194,0.012c2.883,0.008,5.729,0.436,8.473,1.372c4.935,1.684,7.065,4.644,7.093,9.843
		c0.015,2.799,0.03,5.599-0.004,8.398c-0.057,4.73-2.067,7.582-6.518,9.285c-3.801,1.455-7.799,1.628-11.792,1.654
		c-8.078,0.054-16.157,0.016-24.236,0.016c-0.48,0-0.966,0.048-1.439-0.009c-1.193-0.144-1.479,0.404-1.464,1.521
		c0.056,4.079,0.022,8.158,0.022,12.238c0,3.934,0,3.934-3.855,3.934c-1.2,0-2.4,0.015-3.599-0.004
		c-1.78-0.029-1.807-0.039-1.81-1.893C1051.095,315.967,1051.102,308.529,1051.102,301.09z M1076.662,300.175
		c0-0.026,0-0.052,0-0.078c4.795,0,9.59-0.003,14.385,0.003c1.051,0.001,2.065-0.185,3.051-0.531c1.772-0.623,2.303-1.29,2.327-3.14
		c0.036-2.717,0.032-5.435,0.002-8.152c-0.023-2.047-0.454-2.61-2.44-3.279c-1.526-0.514-3.129-0.686-4.718-0.693
		c-9.112-0.038-18.224,0.005-27.335-0.047c-1.317-0.008-1.599,0.485-1.583,1.674c0.054,4.156,0.01,8.312,0.026,12.469
		c0.007,1.742,0.032,1.766,1.899,1.771C1067.071,300.184,1071.867,300.175,1076.662,300.175z"/>
	<path fill="#0B0909" d="M623.725,296.125c0-5.445,0-10.717,0-15.989c0-0.64,0.013-1.28,0.001-1.92
		c-0.014-0.749,0.218-1.199,1.088-1.188c2.4,0.03,4.8,0.031,7.199,0c0.861-0.011,1.121,0.396,1.079,1.171
		c-0.026,0.479-0.003,0.96-0.003,1.44c0,14.319,0,28.638,0,42.958c0,0.48-0.031,0.962,0.006,1.439
		c0.07,0.919-0.315,1.291-1.246,1.276c-2.239-0.035-4.48-0.042-6.719,0.004c-1.023,0.021-1.442-0.349-1.417-1.392
		c0.047-1.999,0.013-3.999,0.013-5.999c0-4.32-0.043-8.64,0.026-12.959c0.02-1.268-0.388-1.595-1.628-1.591
		c-11.919,0.044-23.839,0.022-35.758,0.031c-1.677,0.001-1.706,0.032-1.71,1.685c-0.013,5.84-0.005,11.679-0.006,17.519
		c0,0.56-0.022,1.121,0,1.68c0.028,0.722-0.341,1.008-1.016,1.008c-2.4-0.001-4.8-0.006-7.2,0.004
		c-0.704,0.003-1.019-0.33-1.008-1.019c0.008-0.48-0.004-0.96-0.004-1.44c0-14.479,0-28.958,0-43.438c0-0.4,0.029-0.802-0.003-1.199
		c-0.081-0.987,0.445-1.196,1.311-1.181c2.239,0.038,4.48,0.046,6.719-0.002c0.974-0.021,1.219,0.406,1.211,1.292
		c-0.031,3.36-0.012,6.72-0.012,10.079c0,2.16,0.054,4.322-0.022,6.479c-0.038,1.078,0.359,1.456,1.375,1.325
		c0.157-0.02,0.32-0.003,0.48-0.003c11.999,0,23.999,0,35.998-0.003C622.791,296.192,623.104,296.16,623.725,296.125z"/>
	<path fill="#0B0909" d="M715.251,296.504c0,5.359-0.081,10.719,0.021,16.075c0.123,6.48-3.266,10.34-9.561,11.905
		c-2.412,0.599-4.889,0.8-7.366,0.808c-8.717,0.028-17.435,0.043-26.153-0.007c-2.954-0.017-5.896-0.288-8.736-1.23
		c-5.381-1.786-8.152-5.417-8.177-11.061c-0.05-11.357-0.02-22.714-0.01-34.071c0.002-1.85,0.029-1.867,1.804-1.884
		c2.079-0.019,4.159,0.024,6.238-0.017c0.908-0.018,1.344,0.297,1.287,1.237c-0.034,0.558-0.003,1.119-0.003,1.679
		c0,10.397-0.002,20.794,0.001,31.192c0.002,4.841,1.519,6.639,6.325,6.703c9.594,0.129,19.192,0.033,28.788,0.038
		c1.054,0.001,2.063-0.208,3.045-0.562c2.108-0.76,3.24-2.243,3.269-4.508c0.017-1.359,0.006-2.719,0.006-4.079
		c0-9.677,0-19.355,0-29.032c0-0.56,0.015-1.12,0.002-1.679c-0.017-0.709,0.327-0.984,1.019-0.979
		c2.399,0.016,4.799,0.023,7.198-0.003c0.916-0.01,1.013,0.528,1.007,1.239c-0.014,1.759-0.004,3.519-0.004,5.279
		C715.251,287.867,715.251,292.185,715.251,296.504z"/>
	<path fill="#0B0909" d="M1799.121,277.036c6.238,0,12.476-0.009,18.713,0.006c1.732,0.004,1.78,0.035,1.769,1.668
		c-0.012,1.746,0.701,3.944-0.271,5.119c-1.028,1.244-3.298,0.423-5.015,0.431c-10.236,0.048-20.473,0.039-30.709,0.009
		c-1.692-0.005-3.361,0.154-5.007,0.452c-2.741,0.497-3.67,1.657-3.673,4.387c-0.01,8.077-0.012,16.154,0.001,24.231
		c0.004,2.581,0.593,3.272,3.101,4.093c1.716,0.561,3.475,0.489,5.224,0.492c11.116,0.021,22.232,0.011,33.348,0.011
		c0.56,0,1.122,0.035,1.679-0.006c1.069-0.079,1.384,0.442,1.349,1.438c-0.053,1.518-0.061,3.04,0.002,4.557
		c0.044,1.055-0.391,1.461-1.402,1.384c-0.398-0.03-0.799-0.004-1.199-0.004c-11.516,0-23.032,0.028-34.548-0.019
		c-3.031-0.012-6.053-0.251-8.986-1.18c-5.569-1.763-7.97-4.922-7.987-10.75c-0.024-8.157-0.027-16.314,0.001-24.471
		c0.02-5.691,2.39-8.886,7.84-10.619c2.758-0.877,5.606-1.226,8.497-1.228C1787.605,277.034,1793.363,277.036,1799.121,277.036z"/>
	<path fill="#0B0909" d="M1298.062,277.036c7.599,0,15.197-0.006,22.796,0.004c1.93,0.003,1.936,0.026,1.956,1.974
		c0.013,1.2,0.017,2.4-0.001,3.599c-0.025,1.63-0.036,1.632-1.762,1.669c-0.48,0.01-0.96,0.002-1.44,0.002
		c-11.678,0-23.355,0-35.033,0c-2.047,0-2.092-0.288-2.084,2.068c0.011,3.359-0.007,6.719,0.007,10.078
		c0.007,1.69,0.027,1.712,1.654,1.721c3.039,0.017,6.079,0.005,9.118,0.005c8.158,0,16.317-0.002,24.475,0.001
		c2.319,0.001,2.321-0.267,2.244,2.134c-0.053,1.65,0.733,3.754-0.37,4.824c-0.989,0.96-3.048,0.273-4.632,0.277
		c-9.918,0.024-19.836-0.001-29.754,0.02c-3.095,0.006-2.721-0.485-2.734,2.842c-0.019,4.959,0,9.918-0.008,14.877
		c-0.003,2.139-0.016,2.152-2.031,2.169c-1.999,0.017-4-0.026-5.999,0.015c-1.02,0.021-1.495-0.364-1.393-1.406
		c0.031-0.317,0.004-0.639,0.004-0.959c0-14.557-0.002-29.114,0.002-43.672c0.001-2.224,0.015-2.238,2.188-2.239
		C1282.865,277.032,1290.464,277.036,1298.062,277.036z"/>
	<path fill="#0B0909" d="M1661.469,325.289c-3.063,0-6.068,0.019-9.071-0.011c-0.984-0.01-1.223-0.948-1.634-1.585
		c-3.855-5.969-7.682-11.956-11.518-17.937c-3.749-5.847-7.498-11.694-11.252-17.538c-0.378-0.588-0.796-1.151-1.219-1.762
		c-0.847,0.494-1.119,1.27-1.533,1.904c-7.603,11.626-15.222,23.241-22.737,34.924c-0.996,1.549-2.024,2.19-3.849,2.059
		c-2.293-0.165-4.607-0.04-6.82-0.04c-0.418-0.713,0.032-1.047,0.282-1.423c10.032-15.096,20.079-30.182,30.083-45.296
		c0.735-1.111,1.489-1.707,2.885-1.577c1.585,0.147,3.382-0.365,4.734,0.223c1.37,0.595,1.921,2.456,2.799,3.783
		c9.251,13.984,18.494,27.972,27.725,41.969C1660.762,323.62,1661.4,324.167,1661.469,325.289z"/>
	<path fill="#0B0909" d="M899.258,325.303c-3.236,0-6.019-0.064-8.798,0.027c-1.354,0.045-1.749-0.897-2.298-1.751
		c-4.832-7.521-9.659-15.045-14.487-22.568c-3.103-4.835-6.204-9.671-9.359-14.589c-0.89,0.439-1.187,1.3-1.634,1.983
		c-7.6,11.626-15.194,23.255-22.729,34.923c-0.908,1.406-1.854,2.142-3.62,2.017c-2.368-0.167-4.757-0.041-7.128-0.041
		c-0.292-0.884,0.323-1.305,0.643-1.787c9.929-14.966,19.892-29.91,29.79-44.897c0.811-1.229,1.722-1.464,3.088-1.653
		c3.545-0.49,5.512,0.941,7.434,3.937c9.14,14.24,18.57,28.293,27.893,42.415C898.398,323.839,898.703,324.385,899.258,325.303z"/>
	<path fill="#0B0909" d="M2037.09,277.036c3.177,0,6.216,0.07,9.25-0.03c1.461-0.048,2.52,0.373,3.598,1.386
		c6.291,5.914,12.656,11.748,18.997,17.609c0.646,0.597,1.281,1.206,1.938,1.79c1.245,1.109,1.273,1.128,2.477,0.026
		c3.244-2.969,6.467-5.96,9.696-8.945c3.875-3.582,7.762-7.15,11.608-10.762c0.805-0.756,1.617-1.126,2.751-1.1
		c3.172,0.073,6.347,0.025,9.731,0.025c-0.25,0.855-0.811,1.186-1.242,1.588c-9.064,8.45-18.108,16.921-27.233,25.304
		c-1.359,1.248-1.897,2.503-1.855,4.325c0.114,4.875,0.042,9.755,0.038,14.633c-0.002,2.409-0.009,2.411-2.52,2.417
		c-1.439,0.003-2.879-0.01-4.318,0.003c-2.974,0.026-2.519-0.06-2.526-2.651c-0.013-4.718-0.123-9.44,0.05-14.152
		c0.078-2.136-0.679-3.51-2.205-4.901c-9.1-8.294-18.117-16.677-27.154-25.039C2037.779,278.201,2037.227,277.951,2037.09,277.036z"
		/>
	<path fill="#0B0909" d="M2232.977,277.036c8.873,0,17.746-0.013,26.619,0.007c3.09,0.007,2.706-0.464,2.741,2.844
		c0.006,0.56,0.001,1.119,0,1.679c-0.001,2.717-0.001,2.718-2.838,2.718c-6.235,0.001-12.47-0.018-18.705,0.007
		c-3.454,0.014-2.97-0.475-2.976,3.099c-0.021,11.751-0.008,23.501-0.008,35.252c0,0.56-0.018,1.119-0.002,1.678
		c0.02,0.732-0.381,0.98-1.044,0.979c-2.398-0.004-4.796-0.005-7.194,0c-0.709,0.001-0.997-0.363-0.98-1.044
		c0.014-0.559,0-1.119,0-1.679c0-11.831,0-23.661-0.001-35.492c0-0.639-0.004-1.279-0.009-1.918
		c-0.005-0.581-0.297-0.875-0.881-0.876c-0.559-0.001-1.119-0.006-1.678-0.006c-6.875,0-13.749,0.006-20.624-0.004
		c-1.962-0.003-1.972-0.023-1.989-1.935c-0.013-1.439-0.001-2.878,0.007-4.316c0.004-0.671,0.303-1.034,1.026-0.995
		c0.558,0.03,1.119,0.003,1.678,0.003C2215.072,277.036,2224.024,277.036,2232.977,277.036z"/>
</g>
</svg>
