<svg id="Layer_1" data-name="Layer 1" xmlns="http://www.w3.org/2000/svg" viewBox="0 0 2508 342.46"><defs><style>.cls-1{fill:#c02231;}.cls-2{fill:#fff;}</style></defs><title>Myocortex_White</title><path class="cls-1" d="M258.24,0c9.82.33,19.64.66,29.41,1.78,4.21.48,8.41,1,12.63,1.4a5.18,5.18,0,0,1,4.41,3.16q7.42,14,14.95,27.89l66,122.63a5.74,5.74,0,0,0,.34.63c1.32,1.85,1.18,3.58.07,5.57-3.77,6.77-7.39,13.63-11.06,20.45l-22.68,42.24c-.3.56-.6,1.13-.92,1.68-.79,1.35-.83,1.38-2.11.33-3.4-2.79-6.78-5.6-10.17-8.41-2.83-2.35-5.69-4.66-8.49-7.05a1.67,1.67,0,0,0-2.66.08c-2.71,2.6-5.43,5.21-8.26,7.68-6.61,5.77-13.77,10.78-22.13,13.59-18.49,6.21-35.93,4-51.9-7.47-9.62-6.92-17.22-15.58-21.22-26.88-5.2-14.69-6.23-29.59-.26-44.3,8-19.59,22-32.43,42.92-37.1,13.11-2.93,25.54-.69,37.4,5.35a98.49,98.49,0,0,1,19.26,13.36c2.82,2.41,2.83,2.45,5.47-.06,8.29-7.87,16.56-15.76,24.72-23.53a.59.59,0,0,0-.13-.79c-7.78-6.78-15.66-13.41-24.61-18.66-11.93-7-24.67-11.8-38.44-13.23-27.69-2.88-52.82,3.54-74.58,21.46-.59.49-1,1.23-2,1.36-.43-.52-.26-1.18-.26-1.76q0-48.35,0-96.7c0-.4.05-.8,0-1.2-.09-1.21.53-1.74,1.66-1.84,2.07-.18,4.14-.41,6.21-.54,3.67-.24,7.34-.55,11-.61,3.83-.06,7.64-.69,11.48-.49Z" transform="translate(0 0)"/><path class="cls-1" d="M2508,242.92c-1,0-2-.11-3-.11H578.3c-.64,0-1.28,0-1.92,0-.8,0-.9-.47-.91-1.08s.22-1.06,1-1,1.6,0,2.4,0H2504.54a11.05,11.05,0,0,0,3.46-.16Z" transform="translate(0 0)"/><path class="cls-1" d="M0,163.72a7.4,7.4,0,0,0,.85-3.66,120.74,120.74,0,0,1,16.27-50.19c1.72-3,3.62-5.84,5.45-8.74.15-.24.29-.58.81-.45V241.94c-.7-.29-1-.89-1.28-1.39-9.92-14.87-16.87-31-20-48.61-.53-3-1-6-1.21-9-.1-1.31,0-2.69-.89-3.84Z" transform="translate(0 0)"/><path class="cls-2" d="M2507.63,304.4l.37-.52v13.44l-.35-.52Q2507.64,310.6,2507.63,304.4Z" transform="translate(0 0)"/><path class="cls-1" d="M68.74,112.76c5.62,7.29,11.07,14.72,16.62,22.07s11,14.71,16.55,22.07l16.93,22.57c5.66-7.63,11.09-15.17,16.57-22.67L152,134.13l16.5-22.6c.83.49.53,1.11.53,1.61q-.07,29.75-.17,59.51c-.1,21-.26,42.06-.37,63.1-.08,14.4-.11,28.79-.19,43.19q-.13,25.43-.3,50.86c0,.24,0,.48,0,.72-.06,2.13-.13,2.21-2.23,1.67-9.28-2.38-18.48-5-27.54-8.12a272.27,272.27,0,0,1-67.42-33.85A5.73,5.73,0,0,1,68,284.88q.13-57.83.1-115.66,0-27,.08-54,0-1.15,0-2.29Z" transform="translate(0 0)"/><path class="cls-2" d="M1700.92,114.1c.92,52.22-43.71,97-96.53,95.67-51.33.52-96.4-43.75-94.76-97.19-.23-50,42.46-94.33,95.68-94.28C1658.73,18.36,1701.86,63.07,1700.92,114.1Zm-21.19,0c.81-40.54-34.36-75.34-74.49-74.4-39.7-1-74.53,33.38-74.59,74.23-.07,40.49,33.78,74.89,74.66,74.84C1646.53,188.73,1680.5,154,1679.72,114.11Z" transform="translate(0 0)"/><path class="cls-2" d="M1852.3,142.83,1894,207.21c-.51.78-1.21.48-1.78.48-7,0-14.08,0-21.11.05a3.54,3.54,0,0,1-3.46-1.88q-18-28.16-36.12-56.26c-1.76-2.74-1.76-2.74-5.09-2.74-6.16,0-12.32,0-18.48,0-2.63,0-2.32-.33-2.33,2.26q0,22.79,0,45.59c0,3.6,0,7.2,0,10.8,0,2.15,0,2.18-2,2.18q-8.64,0-17.28,0c-1.74,0-1.74,0-1.79-1.68,0-.4,0-.8,0-1.2q0-90.46,0-180.92c0-2.88,0-2.88,2.93-2.88,15.28,0,30.55.05,45.83,0a48.6,48.6,0,0,1,19.06,4c20.09,8.38,33.68,22.89,38.57,44.23,7.56,33-10,60.73-36.56,72.69C1853.74,142.24,1853.08,142.5,1852.3,142.83Zm-46.65-59q0,19.56,0,39.11c0,3.22-.27,2.74,2.86,2.75,7.12,0,14.24,0,21.36,0a39.41,39.41,0,0,0,11.59-1.57c32-10,39.05-48.07,18.74-68.84-6.68-6.83-14.51-11.35-24.11-12.65a87.92,87.92,0,0,0-11-.35c-5.84-.06-11.68,0-17.52,0-2.11,0-1.9-.08-1.9,2q0,.6,0,1.2Q1805.64,64.6,1805.64,83.79Z" transform="translate(0 0)"/><path class="cls-2" d="M2176.75,114.26q0-45,0-90a11.82,11.82,0,0,0,0-1.68c-.19-1.33.44-1.7,1.63-1.57a10.83,10.83,0,0,0,1.2,0h93.35c3.19,0,2.7-.32,2.72,2.62q0,7.92,0,15.84c0,2.54.52,2.49-2.37,2.49h-73.68c-1.75,0-1.78,0-1.78,1.89q0,16,0,31.92,0,13,0,25.92c0,2.27-.21,2,2.06,2h73c3.24,0,2.8-.43,2.82,2.77q0,7.92,0,15.84c0,2.73.36,2.47-2.38,2.47h-73.44c-2.2,0-2-.2-2,2.09q0,25.8,0,51.6c0,2.24.06,4.48,0,6.72,0,1.18.38,1.57,1.52,1.47,1-.08,1.92,0,2.88,0H2273c3.13,0,2.65-.36,2.66,2.65,0,5.52,0,11,0,16.56,0,1.73,0,1.73-1.68,1.78-.4,0-.8,0-1.2,0h-93.12c-3.35,0-2.89.36-2.9-3Q2176.74,159.5,2176.75,114.26Z" transform="translate(0 0)"/><path class="cls-2" d="M1438.39,48,1422.65,62c-2.75-2.31-5.32-4.6-8-6.7A68.27,68.27,0,0,0,1381.14,41c-18.21-2.39-35.56.24-51.14,10.54-14,9.23-24.47,21.43-30.28,37.32-4,11-4.88,22.38-3.84,34,2.82,31.58,27.09,53.9,47.89,61.36a76.93,76.93,0,0,0,32.28,4.14,70.93,70.93,0,0,0,37.76-14.18,88.24,88.24,0,0,0,7.52-6.34c.8-.75,1.39-1,2.38-.14,4.74,4.3,9.55,8.51,14.33,12.76a1.51,1.51,0,0,1,.23.38c-35.28,37.29-96.14,38.45-133.57,3.8-39.6-36.66-40-100.1-3.1-137.5C1338,10.23,1400.45,8.56,1438.39,48Z" transform="translate(0 0)"/><path class="cls-2" d="M2497,21a5.25,5.25,0,0,1-1.07,2.45q-23.16,40-46.38,80a3.65,3.65,0,0,0-.05,4.28q28.31,48.65,56.47,97.39a6.13,6.13,0,0,1,1.11,2.28,2.94,2.94,0,0,1-2,.28c-6.56,0-13.12-.06-19.68.06a3.33,3.33,0,0,1-3.34-2q-19.87-34.44-39.81-68.84c-1.8-3.11-3.59-6.23-5.39-9.33a5.92,5.92,0,0,0-.67-.78l-16.57,28.68q-14.49,25.1-28.95,50.23a3.5,3.5,0,0,1-3.54,2.07c-7-.11-14.06,0-21.16,0-.3-1.1.46-1.72.86-2.43q18.82-32.7,37.67-65.38c6.22-10.79,12.41-21.6,18.7-32.35a3.31,3.31,0,0,0,0-3.88q-23.25-40.1-46.39-80.26l-1.16-2a2.59,2.59,0,0,1,1.95-.34c6.64,0,13.28,0,19.92-.05a3.1,3.1,0,0,1,3.16,1.86q17.09,29.82,34.3,59.57l1.21,2.08c.87-.49,1.11-1.39,1.53-2.13Q2454.87,52.73,2472,23a3.46,3.46,0,0,1,3.53-2.06c6.4.12,12.8,0,19.2,0Z" transform="translate(0 0)"/><path class="cls-1" d="M214.47,250.42a94.79,94.79,0,0,0,59.42,23.43A98.58,98.58,0,0,0,335.48,256c.25,1.31-.49,2-.91,2.81Q321.06,284,307.5,309.25c-5,9.29-10,18.55-14.91,27.89a5.69,5.69,0,0,1-5.16,3.53c-4.15.22-8.28.72-12.43,1a354.07,354.07,0,0,1-36.19.58c-7.59-.29-15.16-.81-22.73-1.48-2-.18-2.12-.26-2.15-2.32,0-2.24,0-4.48,0-6.72q0-37.9,0-75.8v-5.22Z" transform="translate(0 0)"/><path class="cls-2" d="M577.08,20.2c4.83,0,9.7,0,14.57,0,1.13,0,1.43.89,1.94,1.55q10.87,14.18,21.71,28.39l41.22,53.93c1.8,2.36,1.53,2.32,3.38-.11l33.6-44.05Q708,40.84,722.55,21.74a3.44,3.44,0,0,1,3.17-1.58c4.47.09,8.94,0,13.34,0a5.57,5.57,0,0,1,.26,2.54q0,89,0,178.07c0,.4,0,.8,0,1.2.06.78-.22,1.16-1.08,1.15-3.27,0-6.54,0-9.95,0V33.76c-.42.22,0,.06-.36,0-.07,0-.17,0-.21,0a6,6,0,0,0-.66.68l-68.9,90.3C634.85,94.29,611.7,63.92,588,33.78V202.59c-.61.74-1.21.55-1.73.55-2.64,0-5.28-.06-7.92,0-1.31,0-1.72-.44-1.56-1.65a9.54,9.54,0,0,0,0-1.2q0-88.44,0-176.87A9.26,9.26,0,0,1,577.08,20.2Z" transform="translate(0 0)"/><path class="cls-2" d="M1196.58,111.49c.65,51.12-42.36,94.06-94,94-52.14,0-94.83-44-93.68-94.3-1-50.68,42.76-94.55,93.72-93.54C1153.13,16.6,1197.29,59.65,1196.58,111.49Zm-10.77,0c1-45-37.86-83.69-82.36-83.11-45.53-1.35-83.73,37.74-84.1,82.31-.38,46.4,38.93,85,83.17,83.92C1147.4,195.75,1186.76,156.82,1185.8,111.45Z" transform="translate(0 0)"/><path class="cls-2" d="M2032.33,124.77v79.92a11.07,11.07,0,0,0,0,1.44c.17,1.32-.48,1.6-1.67,1.59q-8.88-.06-17.76,0c-1.27,0-1.75-.45-1.61-1.69a15.24,15.24,0,0,0,0-1.68q0-79.68,0-159.36c0-3.53.47-3-3.05-3q-19.2,0-38.4,0c-.56,0-1.12,0-1.68,0-1,.07-1.21-.41-1.2-1.3,0-2.88,0-5.76,0-8.64s0-5.92,0-8.88c0-2.31-.26-2.13,2.24-2.14h104.64c3.44,0,3-.33,3,2.89,0,5.28,0,10.56,0,15.84,0,2.09.44,2.23-2.19,2.22q-19.68,0-39.36,0c-3.44,0-2.95-.44-3,2.87Q2032.32,84.81,2032.33,124.77Z" transform="translate(0 0)"/><path class="cls-1" d="M482.15,237.74l-4.55-8.4q-17.82-33-35.68-66a5.53,5.53,0,0,1,0-6q16.41-30.1,32.64-60.29c.33-.61.48-1.36,1.21-1.7C507,134.27,511.93,192.78,482.15,237.74Z" transform="translate(0 0)"/><path class="cls-1" d="M350,328.19l63.56-118c.94.11,1,.74,1.28,1.2l33.78,62.64c1,1.9,1,1.91-.83,3.5-16.91,14.52-35.73,26-55.9,35.39A287.84,287.84,0,0,1,351.86,328c-.38.11-.76.24-1.15.31A2.46,2.46,0,0,1,350,328.19Z" transform="translate(0 0)"/><path class="cls-1" d="M81.17,45.29c30.6-19,63.6-31.11,98.52-38.22l.32.45-61.32,95.12Z" transform="translate(0 0)"/><path class="cls-2" d="M880.53,117.25c5.37-9.29,10.68-18.48,16-27.67Q915.91,56,935.25,22.32A3.52,3.52,0,0,1,939,20.16c3,.18,6.07,0,9.16,0,.11,1.05-.58,1.69-1,2.42Q917,74.82,886.89,127a9,9,0,0,0-1.26,4.73q.06,34.2,0,68.4a13.62,13.62,0,0,0,0,1.44c.11,1.07-.16,1.6-1.41,1.55-2.64-.09-5.28-.05-7.92,0-.9,0-1.35-.24-1.26-1.21.05-.56,0-1.12,0-1.68q0-34.44,0-68.88a8.15,8.15,0,0,0-1.17-4.27Q843.77,74.89,813.67,22.7a5.83,5.83,0,0,1-1.07-2.29,5.64,5.64,0,0,1,2.48-.19c2.48,0,5,.07,7.44,0a2.51,2.51,0,0,1,2.63,1.52c4.74,8.33,9.55,16.61,14.34,24.91Q859.3,81,879.11,115.29A5.26,5.26,0,0,0,880.53,117.25Z" transform="translate(0 0)"/><path class="cls-1" d="M414,110.75c-1.21-1.45-48.84-89.95-49.58-92.12.58-.27,1.09.09,1.56.26,26.53,9.38,51.36,22,73.7,39.22l.57.44c1.39,1.14,1.42,1.16.58,2.73q-4.35,8.14-8.73,16.26Q423.6,93.28,415.14,109C414.81,109.62,414.62,110.35,414,110.75Z" transform="translate(0 0)"/><path class="cls-2" d="M746.45,292.41v2.87q0,13.68,0,27.35c0,.56,0,1.12,0,1.68,0,.73-.37,1-1,1-2.24,0-4.48,0-6.72,0-1,0-1.26-.48-1.21-1.34,0-.4,0-.8,0-1.2V279.58c0-.24,0-.48,0-.72,0-1.79,0-1.8,1.89-1.82,1.6,0,3.21.1,4.8,0a3.17,3.17,0,0,1,3.15,1.58c6.16,8.56,12.38,17.08,18.58,25.61l7.75,10.67c.27.37.57.72.85,1.07a5.17,5.17,0,0,0,1.64-1.86q12.73-17.57,25.4-35.18a3.65,3.65,0,0,1,3.73-1.88c1.8.21,3.64-.27,5.42.27a25,25,0,0,1,.16,5.25q0,19.92,0,39.83c0,.56,0,1.12,0,1.68.07.92-.31,1.29-1.24,1.27-1.84,0-3.68,0-5.52,0-2.11,0-2.13,0-2.13-2.06q0-9.48,0-19V292.82c-1.08.36-1.39,1.22-1.85,1.85-6.89,9.52-13.79,19-20.59,28.6a4,4,0,0,1-4.13,2c-1.65-.19-3.55.55-4.92-.34s-2-2.42-3-3.71q-9.65-13.29-19.28-26.59C747.81,294.07,747.31,293.49,746.45,292.41Z" transform="translate(0 0)"/><path class="cls-2" d="M2390.14,316a8,8,0,0,0,1.73-2.08c8.44-11.65,16.89-23.28,25.27-35,1-1.38,2-2.12,3.7-1.89s3.64-.28,5.43.29a23.88,23.88,0,0,1,.17,5.23q0,19.91,0,39.83c0,.56,0,1.12,0,1.68.07.93-.33,1.29-1.25,1.27-2.16,0-4.32,0-6.48,0-.94,0-1.29-.42-1.24-1.31,0-.56,0-1.12,0-1.68V293.07c-.9-.16-1,.55-1.27.95-7,9.64-14,19.27-20.89,29a5.31,5.31,0,0,1-4.45,2.43c-3.66.33-5.73-1.09-7.76-4-6.23-9-12.78-17.78-19.21-26.64-.46-.64-.94-1.27-1.43-1.93-.71.51-.4,1.2-.4,1.77,0,9.28,0,18.55,0,27.83,0,3.17.52,2.85-3,2.88-1.52,0-3,0-4.56,0-1,0-1.53-.28-1.43-1.36,0-.48,0-1,0-1.44q0-21.35,0-42.71a9.6,9.6,0,0,0,0-1.2c-.17-1.31.47-1.64,1.67-1.59a40.29,40.29,0,0,0,5,0,3.21,3.21,0,0,1,3.15,1.59c5.17,7.21,10.39,14.37,15.61,21.55L2389,314.49C2389.34,315,2389.74,315.47,2390.14,316Z" transform="translate(0 0)"/><path class="cls-2" d="M1564,292.87l-10.77,14.92c-3.79,5.25-7.62,10.46-11.34,15.76a3.48,3.48,0,0,1-3.56,1.78,15.45,15.45,0,0,0-3.35,0,3.16,3.16,0,0,1-3.15-1.63q-10.29-14.31-20.66-28.55a8.18,8.18,0,0,0-2.06-2.15v1.79q0,14.16,0,28.31c0,2.17,0,2.18-2.25,2.19-1.84,0-3.68,0-5.52,0-.91,0-1.34-.32-1.26-1.26,0-.48,0-1,0-1.44q0-21.47,0-42.95c0-.56,0-1.12,0-1.68,0-.73.37-1,1-1,2.24,0,4.48,0,6.72,0,1.13,0,1.46.84,2,1.52q5.94,8.13,11.84,16.29l14.1,19.39c.42.58.87,1.13,1.33,1.72a4.11,4.11,0,0,0,1.42-1.59q12.94-17.86,25.84-35.74a3.13,3.13,0,0,1,3.13-1.59c1.43.13,2.88,0,4.32,0,1.63,0,1.63,0,1.67,1.77,0,.08,0,.16,0,.24q0,22.07,0,44.15c0,2.08,0,2.09-2.07,2.11-1.76,0-3.52-.05-5.28,0-1.25.05-1.66-.4-1.64-1.66.06-5.6,0-11.2,0-16.79V293Z" transform="translate(0 0)"/><path class="cls-2" d="M1372,277c5,0,9.91,0,14.87,0a28,28,0,0,1,9.18,1.43c4.82,1.68,6.91,4.64,6.91,9.71q0,13.07,0,26.14c0,4.88-2,7.7-6.6,9.44a28.23,28.23,0,0,1-9.88,1.52q-14.51.11-29,0a29.51,29.51,0,0,1-9-1.2,15.52,15.52,0,0,1-3.07-1.3,8.2,8.2,0,0,1-4.45-7.43q0-14.15,0-28.29c0-4,2.14-6.57,5.65-8.12a25.2,25.2,0,0,1,10-1.89C1361.78,277,1366.9,277,1372,277Zm-.2,40.83v.07c4.71,0,9.43,0,14.14,0a16,16,0,0,0,5.21-.55c2-.69,2.46-1.17,2.47-3.25q0-12.94,0-25.88c0-2-.48-2.63-2.49-3.25a19.14,19.14,0,0,0-5.67-.71c-9,0-18.05,0-27.08,0a26.66,26.66,0,0,0-5,.5c-2.5.47-3.18,1.4-3.18,3.94q0,12.22,0,24.44c0,3.12.63,3.92,3.65,4.53a11,11,0,0,0,2.14.18C1361.27,317.87,1366.55,317.87,1371.82,317.87Z" transform="translate(0 0)"/><path class="cls-2" d="M2149.2,317.86q10.31,0,20.63,0a10.2,10.2,0,0,0,3.52-.65,2.72,2.72,0,0,0,2-2.88c-.08-2.4,0-4.8,0-7.2,0-1.87-.55-2.6-2.25-3.21a16.67,16.67,0,0,0-5.69-.63h-25.19a40.59,40.59,0,0,1-8.56-.87,16.55,16.55,0,0,1-3.82-1.34,8.42,8.42,0,0,1-5.09-7,37.2,37.2,0,0,1,.05-8.13,8.3,8.3,0,0,1,4.67-6.54,21.36,21.36,0,0,1,10.18-2.31c13.43-.1,26.87,0,40.3,0,1.63,0,1.64,0,1.67,1.76,0,1.36,0,2.72,0,4.08,0,1-.19,1.54-1.3,1.42a15.5,15.5,0,0,0-1.68,0q-18.11,0-36.22,0a28.76,28.76,0,0,0-5.24.48c-2.5.46-3.18,1.39-3.21,3.92,0,1.12,0,2.24,0,3.36,0,2,.51,2.61,2.48,3.26a21.15,21.15,0,0,0,6.65.65c8.16,0,16.31,0,24.47,0a31.59,31.59,0,0,1,9.47,1.17,14.91,14.91,0,0,1,3.27,1.43,8.19,8.19,0,0,1,4.26,7.3q0,4.8,0,9.6a8.11,8.11,0,0,1-4.3,7.26,17.28,17.28,0,0,1-7,2.2,55.36,55.36,0,0,1-6.46.4c-12.55,0-25.11,0-37.66,0-.56,0-1.12,0-1.68,0-.8,0-1.16-.31-1.15-1.12,0-1.68,0-3.36,0-5,0-1,.43-1.27,1.32-1.21.48,0,1,0,1.44,0h20.15Z" transform="translate(0 0)"/><path class="cls-2" d="M1984,317.86h20.63a10.15,10.15,0,0,0,1.91-.15c3-.59,3.68-1.39,3.68-4.51,0-2,0-4,0-6s-.61-2.68-2.46-3.31a16.66,16.66,0,0,0-5.45-.58c-8.48,0-17,0-25.43,0a32.88,32.88,0,0,1-9.7-1.24c-5.55-1.73-7.7-4.59-7.71-10.33,0-1.36,0-2.72,0-4.08a8.92,8.92,0,0,1,5.87-8.76,22.65,22.65,0,0,1,8.86-1.79c13.59-.09,27.19,0,40.78-.08,1.12,0,1.6.29,1.52,1.48-.13,1.82.13,3.66-.14,5.48-1.77.67-3.61.28-5.41.29q-16.79.07-33.59,0a31.74,31.74,0,0,0-5,.43c-2.81.44-3.5,1.31-3.51,4.12,0,1.12.06,2.24,0,3.36a2.78,2.78,0,0,0,2.16,3,11,11,0,0,0,3,.58c5.75.32,11.51.07,17.27.16,5.27.08,10.55-.22,15.82.25a19.83,19.83,0,0,1,7.35,2,8.39,8.39,0,0,1,5,7.84q0,4.68,0,9.36a8.25,8.25,0,0,1-4.65,7.55,17.84,17.84,0,0,1-6.84,2,64.36,64.36,0,0,1-6.94.38c-12.39,0-24.79,0-37.18,0h-1.68c-.72,0-1-.38-1-1,0-1.52,0-3,0-4.56,0-1.71,0-1.74,1.71-1.75,4.24,0,8.48,0,12.71,0h8.4Z" transform="translate(0 0)"/><path class="cls-2" d="M2507.63,304.4q0,6.2,0,12.4c0,2.69-1.58,4.42-3.69,5.78a16.71,16.71,0,0,1-7.22,2.34,54.56,54.56,0,0,1-6.46.41c-12.56,0-25.11,0-37.67,0-.56,0-1.12,0-1.68,0-.79,0-1.22-.25-1.17-1.09,0-.16,0-.32,0-.48.08-1.83-.73-4.13.32-5.35s3.45-.42,5.24-.43c11.76,0,23.51,0,35.27,0a17.54,17.54,0,0,0,5.7-.55c2-.69,2.51-1.27,2.53-3.46s0-4.48,0-6.72c0-2-.57-2.67-2.45-3.31a16.55,16.55,0,0,0-5.45-.58c-8.48,0-17,0-25.43,0a32.87,32.87,0,0,1-9.93-1.29c-5.33-1.7-7.48-4.64-7.49-10.27,0-1.36,0-2.72,0-4.08a9,9,0,0,1,5.88-8.76,23.87,23.87,0,0,1,9.34-1.82c13.35-.07,26.71,0,40.06,0,1.7,0,1.74,0,1.73,1.69s.7,4-.27,5.12-3.3.41-5,.42q-16.91.07-33.83,0a31.54,31.54,0,0,0-5,.43c-2.77.44-3.53,1.37-3.56,4.13,0,1.2,0,2.4,0,3.6a2.69,2.69,0,0,0,2,2.7,10.74,10.74,0,0,0,3.27.67c6.79.34,13.59.07,20.39.16,4.24.06,8.48-.17,12.7.25a18.66,18.66,0,0,1,8,2.32C2505.9,299.86,2507.57,301.6,2507.63,304.4Z" transform="translate(0 0)"/><path class="cls-2" d="M1468.26,303.56l11.37,21.73c-3.36,0-6.35,0-9.34,0-1,0-1.12-1-1.47-1.69-3.1-5.85-6.24-11.69-9.2-17.61a3.4,3.4,0,0,0-3.66-2.16c-6.63.12-13.27,0-19.91,0-2.23,0-2-.13-2,2.1,0,5.76,0,11.51,0,17.27,0,2.05,0,2.06-2.14,2.07s-4,0-6,0c-.95,0-1.29-.39-1.23-1.29,0-.48,0-1,0-1.44V279.65c0-.4,0-.8,0-1.2-.09-1,.2-1.55,1.31-1.42a10.66,10.66,0,0,0,1.2,0q18.23,0,36.46,0a34.58,34.58,0,0,1,8.06,1,13.43,13.43,0,0,1,4,1.61,8.26,8.26,0,0,1,4.31,7.27c0,2.32,0,4.64,0,7a8.32,8.32,0,0,1-4.79,7.71A19.92,19.92,0,0,1,1468.26,303.56Zm-18.43-6.94h13a17.52,17.52,0,0,0,5.66-.79c1.86-.63,2.27-1.23,2.3-3.14,0-1.52-.05-3,0-4.56a2.82,2.82,0,0,0-2.15-3,14.58,14.58,0,0,0-4.94-.79c-9.35-.06-18.71,0-28.06-.06-1.35,0-1.61.5-1.59,1.69.06,3,.07,6.08,0,9.11,0,1.28.44,1.61,1.67,1.59C1440.39,296.58,1445.11,296.62,1449.83,296.62Z" transform="translate(0 0)"/><path class="cls-2" d="M1239.53,303.57l11.36,21.72h-9.18c-1,0-1.21-.92-1.57-1.59-2.21-4.16-4.38-8.33-6.57-12.5-1.08-2-2.21-4.07-3.22-6.15a1.92,1.92,0,0,0-2-1.22c-7.19,0-14.39.07-21.59,0-1.42,0-1.51.59-1.5,1.69,0,5.76,0,11.51,0,17.27,0,2.67.4,2.52-2.62,2.52-1.68,0-3.36-.08-5,0-1.33.08-1.67-.47-1.6-1.69.08-1.43,0-2.88,0-4.32q0-19.31,0-38.61c0-.4,0-.8,0-1.2,0-2.86-.17-2.47,2.4-2.47h32.14a58,58,0,0,1,9.81.43,20.75,20.75,0,0,1,5.91,1.8,8.62,8.62,0,0,1,5.05,8.06c0,2,0,4,0,6a8.84,8.84,0,0,1-5.67,8.64A21.65,21.65,0,0,1,1239.53,303.57ZM1221,296.62c4.31,0,8.63,0,12.94,0a19.25,19.25,0,0,0,5.9-.81,2.91,2.91,0,0,0,2.26-3c0-1.6,0-3.2,0-4.79a2.88,2.88,0,0,0-2.09-2.89,15.2,15.2,0,0,0-5.17-.83c-9.35-.05-18.7,0-28-.06-1.39,0-1.56.55-1.54,1.69.05,3,.07,6.07,0,9.11,0,1.25.36,1.62,1.62,1.6C1211.55,296.58,1216.27,296.62,1221,296.62Z" transform="translate(0 0)"/><path class="cls-2" d="M972.12,313.74V291.9c0-4.32,0-8.63,0-13,0-1.88,0-1.89,1.79-1.91s3.68.07,5.51,0c1.31-.07,1.66.48,1.6,1.68-.07,1.44,0,2.88,0,4.32q0,19.67,0,39.33c0,.56,0,1.12,0,1.68.06.92-.35,1.3-1.26,1.29-1.76,0-3.52,0-5.28,0-1.18,0-1.88-.82-2.68-1.43q-15.72-12-31.41-24l-12.56-9.61c-.5-.38-1-.73-1.55-1.12-.57.6-.32,1.27-.32,1.85q0,16.07,0,32.14c0,2.13.29,2.21-2.24,2.19-1.76,0-3.52,0-5.28,0-.95,0-1.3-.39-1.24-1.29,0-.48,0-1,0-1.44q0-21.46,0-42.93c0-.56,0-1.12,0-1.68,0-.72.37-1,1-.95,1.84,0,3.68,0,5.52,0a3.29,3.29,0,0,1,2.07,1.07L959,303.69Z" transform="translate(0 0)"/><path class="cls-2" d="M1688.52,288.9v10.55q0,11.88,0,23.76c0,2.07,0,2.08-2.12,2.09-1.6,0-3.2,0-4.8,0-2,0-2,0-2-1.95,0-3.92,0-7.84,0-11.76q0-16,0-31.92c0-.56,0-1.12,0-1.68,0-.72.38-1,1.05-1,1.92,0,3.84,0,5.76,0,1,0,1.55.76,2.23,1.28q19,14.61,38,29.26c2.28,1.76,4.55,3.52,6.84,5.27.29.22.55.61,1.21.34,0-.7,0-1.47,0-2.24q0-15.6,0-31.2c0-.56,0-1.12,0-1.68s.21-1.05,1-1c2.24,0,4.48,0,6.72,0,.86,0,1.11.41,1.07,1.18,0,.48,0,1,0,1.44q0,21.48,0,43c0,.48,0,1,0,1.44.07.92-.32,1.3-1.25,1.28-1.68,0-3.36-.05-5,0a3.88,3.88,0,0,1-2.52-1.21l-41.14-31.46Z" transform="translate(0 0)"/><path class="cls-2" d="M1134,296.18h38.06v7.18H1134c0,4.65,0,9,0,13.42,0,1,.48,1.17,1.32,1.16,3.52,0,7,0,10.55,0h25.91c2.61,0,2.56-.36,2.55,2.63,0,1.2,0,2.4,0,3.6,0,.81-.37,1.16-1.17,1.13-.48,0-1,0-1.44,0h-44.38c-3.18,0-2.66.07-2.66-2.74q0-21.35,0-42.7c0-.56,0-1.12,0-1.68,0-.8.27-1.2,1.11-1.15.48,0,1,0,1.44,0h44.62c.4,0,.8,0,1.2,0,.91-.08,1.32.28,1.29,1.23,0,1.68,0,3.36,0,5,0,.72-.34,1-1,1s-1.12,0-1.68,0h-34.78c-.48,0-1,0-1.44,0-1-.1-1.42.32-1.41,1.36C1134.06,289.07,1134,292.51,1134,296.18Z" transform="translate(0 0)"/><path class="cls-2" d="M2306.78,277h22.8c1.85,0,1.86,0,1.88,1.79,0,1.44,0,2.88,0,4.32,0,.79-.21,1.21-1.07,1.14-.56,0-1.12,0-1.68,0h-34.79c-.56,0-1.12,0-1.68,0s-1.09.17-1.09.92c0,3.36,0,6.72,0,10.08,0,.59.23.9.83.91h35.51c2.13,0,2-.11,2,1.91,0,1.67.7,3.83-.26,4.88s-3.31.4-5,.4c-10.32,0-20.64,0-31,0-2.23,0-2.05-.1-2,2.1,0,3.36,0,6.72,0,10.08,0,2.34-.36,2.36,2.3,2.36h34.31c3.7,0,3.7,0,3.7,3.61s0,3.76-3.79,3.76h-43.19c-2.9,0-2.6.2-2.6-2.55q0-21.6,0-43.19c0-.56,0-1.12,0-1.68s.32-.86.9-.84,1.12,0,1.68,0Z" transform="translate(0 0)"/><path class="cls-2" d="M1865.92,277h22.8c2.11,0,2.07-.17,2.06,2.1a34.77,34.77,0,0,0,0,3.6c.13,1.34-.47,1.57-1.65,1.57-8.08,0-16.16,0-24.24,0-4.24,0-8.48,0-12.72,0-1.69,0-1.72,0-1.73,1.71,0,2.88.07,5.76,0,8.64,0,1.33.45,1.58,1.64,1.58,8.72,0,17.44,0,26.16,0,3,0,6.08.05,9.12,0,1.2,0,1.52.4,1.45,1.52-.09,1.27,0,2.56,0,3.84,0,2,.09,1.88-2,1.88h-18c-5.52,0-11,0-16.56,0-1.7,0-1.73,0-1.73,1.68q0,5.52,0,11c0,1.78,0,1.81,1.86,1.81q17.76,0,35.52,0c3.36,0,2.93-.39,2.91,2.94,0,1.41.64,3.16-.36,4.13s-2.6.28-3.94.28q-21,0-42,0H1843c-1.79,0-1.82,0-1.82-1.88q0-22.2,0-44.4c0-2,0-2,1.93-2Z" transform="translate(0 0)"/><path class="cls-2" d="M1051.1,301.09q0-11,0-22.08c0-2,0-2,1.94-2q18.6,0,37.19,0a26.34,26.34,0,0,1,8.47,1.37c4.94,1.68,7.06,4.64,7.09,9.84,0,2.8,0,5.6,0,8.4-.06,4.73-2.07,7.58-6.52,9.28-3.8,1.45-7.8,1.63-11.79,1.65-8.08.05-16.16,0-24.24,0a12.08,12.08,0,0,1-1.44,0c-1.19-.14-1.48.4-1.46,1.52.06,4.08,0,8.16,0,12.24s0,3.93-3.86,3.93c-1.2,0-2.4,0-3.6,0-1.78,0-1.81,0-1.81-1.89Q1051.09,312.25,1051.1,301.09Zm25.56-.91v-.08H1091a9.1,9.1,0,0,0,3.05-.53c1.77-.62,2.3-1.29,2.33-3.14q.05-4.08,0-8.15c0-2-.45-2.61-2.44-3.28a14.91,14.91,0,0,0-4.72-.69c-9.11,0-18.22,0-27.34,0-1.32,0-1.6.48-1.58,1.67.05,4.16,0,8.31,0,12.47,0,1.74,0,1.77,1.9,1.77C1067.07,300.18,1071.87,300.18,1076.66,300.18Z" transform="translate(0 0)"/><path class="cls-2" d="M623.72,296.13c0-5.44,0-10.72,0-16,0-.64,0-1.28,0-1.92s.22-1.2,1.09-1.19q3.6,0,7.2,0c.86,0,1.12.4,1.08,1.17,0,.48,0,1,0,1.44q0,21.48,0,43c0,.48,0,1,0,1.44.07.92-.32,1.29-1.25,1.28-2.24,0-4.48,0-6.72,0-1,0-1.44-.35-1.42-1.39,0-2,0-4,0-6,0-4.32,0-8.64,0-13,0-1.27-.39-1.6-1.63-1.59-11.92,0-23.84,0-35.76,0-1.68,0-1.71,0-1.71,1.68,0,5.84,0,11.68,0,17.52,0,.56,0,1.12,0,1.68,0,.72-.34,1-1,1h-7.2a.87.87,0,0,1-1-1c0-.48,0-1,0-1.44q0-21.72,0-43.44c0-.4,0-.8,0-1.2-.08-1,.44-1.2,1.31-1.18,2.24,0,4.48,0,6.72,0,1,0,1.22.41,1.21,1.29,0,3.36,0,6.72,0,10.08,0,2.16.05,4.32,0,6.48,0,1.08.36,1.46,1.37,1.32a3.78,3.78,0,0,1,.48,0h36C622.79,296.19,623.1,296.16,623.72,296.13Z" transform="translate(0 0)"/><path class="cls-2" d="M715.25,296.5c0,5.36-.08,10.72,0,16.08.12,6.48-3.27,10.34-9.56,11.9a30.88,30.88,0,0,1-7.37.81c-8.72,0-17.44,0-26.15,0a28,28,0,0,1-8.74-1.23c-5.38-1.79-8.15-5.42-8.18-11.06-.05-11.36,0-22.71,0-34.07,0-1.85,0-1.87,1.8-1.88,2.08,0,4.16,0,6.24,0,.91,0,1.34.3,1.29,1.24,0,.56,0,1.12,0,1.68q0,15.6,0,31.19c0,4.84,1.52,6.64,6.33,6.7,9.59.13,19.19,0,28.79,0a8.9,8.9,0,0,0,3-.56A4.51,4.51,0,0,0,706,312.8c0-1.36,0-2.72,0-4.08q0-14.52,0-29c0-.56,0-1.12,0-1.68s.33-1,1-1c2.4,0,4.8,0,7.2,0,.92,0,1,.53,1,1.24,0,1.76,0,3.52,0,5.28Q715.25,290,715.25,296.5Z" transform="translate(0 0)"/><path class="cls-2" d="M1799.12,277c6.24,0,12.48,0,18.71,0,1.73,0,1.78,0,1.77,1.67s.7,3.94-.27,5.12-3.3.42-5,.43q-15.35.07-30.71,0a27.58,27.58,0,0,0-5,.45c-2.74.5-3.67,1.66-3.67,4.39q0,12.12,0,24.23c0,2.58.59,3.27,3.1,4.09a16.53,16.53,0,0,0,5.22.49q16.67,0,33.35,0c.56,0,1.12,0,1.68,0,1.07-.08,1.38.44,1.35,1.44-.05,1.52-.06,3,0,4.56,0,1.06-.39,1.46-1.4,1.38-.4,0-.8,0-1.2,0-11.52,0-23,0-34.55,0a29.91,29.91,0,0,1-9-1.18c-5.57-1.76-8-4.92-8-10.75q0-12.24,0-24.47c0-5.69,2.39-8.89,7.84-10.62a27.9,27.9,0,0,1,8.5-1.23Z" transform="translate(0 0)"/><path class="cls-2" d="M1298.06,277h22.8c1.93,0,1.94,0,2,2,0,1.2,0,2.4,0,3.6,0,1.63,0,1.63-1.76,1.67h-36.47c-2,0-2.09-.29-2.08,2.07,0,3.36,0,6.72,0,10.08,0,1.69,0,1.71,1.65,1.72,3,0,6.08,0,9.12,0h24.48c2.32,0,2.32-.27,2.24,2.13-.05,1.65.73,3.75-.37,4.82s-3,.27-4.63.28c-9.92,0-19.84,0-29.75,0-3.1,0-2.72-.48-2.73,2.84,0,5,0,9.92,0,14.88,0,2.14,0,2.15-2,2.17s-4,0-6,0c-1,0-1.5-.36-1.39-1.41,0-.32,0-.64,0-1q0-21.84,0-43.67c0-2.22,0-2.24,2.19-2.24Z" transform="translate(0 0)"/><path class="cls-2" d="M1661.47,325.29c-3.06,0-6.07,0-9.07,0-1,0-1.22-.95-1.63-1.58q-5.78-9-11.52-17.94L1628,288.22c-.38-.59-.8-1.15-1.22-1.76a4.76,4.76,0,0,0-1.53,1.9c-7.6,11.63-15.22,23.24-22.74,34.92a3.74,3.74,0,0,1-3.85,2.06c-2.29-.16-4.61,0-6.82,0-.42-.71,0-1,.28-1.42q15-22.64,30.08-45.3a2.83,2.83,0,0,1,2.88-1.58c1.59.15,3.38-.36,4.73.22s1.92,2.46,2.8,3.78q13.88,21,27.72,42A4.23,4.23,0,0,1,1661.47,325.29Z" transform="translate(0 0)"/><path class="cls-2" d="M899.26,325.3c-3.24,0-6-.06-8.8,0-1.35,0-1.75-.9-2.3-1.75L873.68,301l-9.36-14.59c-.89.44-1.19,1.3-1.63,2q-11.4,17.44-22.73,34.92a3.59,3.59,0,0,1-3.62,2c-2.37-.17-4.76,0-7.13,0-.29-.88.32-1.3.64-1.79q14.89-22.45,29.79-44.9a3.69,3.69,0,0,1,3.09-1.65c3.55-.49,5.51.94,7.43,3.94,9.14,14.24,18.57,28.29,27.89,42.42C898.4,323.84,898.7,324.38,899.26,325.3Z" transform="translate(0 0)"/><path class="cls-2" d="M2037.09,277c3.18,0,6.22.07,9.25,0a4.6,4.6,0,0,1,3.6,1.39c6.29,5.91,12.66,11.75,19,17.61.65.6,1.28,1.21,1.94,1.79,1.25,1.11,1.27,1.13,2.48,0q4.87-4.45,9.7-8.94c3.87-3.58,7.76-7.15,11.61-10.76a3.61,3.61,0,0,1,2.75-1.1c3.17.07,6.35,0,9.73,0a3.26,3.26,0,0,1-1.24,1.59c-9.06,8.45-18.11,16.92-27.23,25.3a5.16,5.16,0,0,0-1.85,4.33c.11,4.88,0,9.75,0,14.63,0,2.41,0,2.41-2.52,2.42-1.44,0-2.88,0-4.32,0-3,0-2.52-.06-2.53-2.65,0-4.72-.12-9.44,0-14.15a5.78,5.78,0,0,0-2.2-4.9c-9.1-8.29-18.12-16.68-27.15-25C2037.78,278.2,2037.23,278,2037.09,277Z" transform="translate(0 0)"/><path class="cls-2" d="M2233,277c8.87,0,17.75,0,26.62,0,3.09,0,2.71-.46,2.74,2.84,0,.56,0,1.12,0,1.68,0,2.72,0,2.72-2.84,2.72-6.24,0-12.47,0-18.7,0-3.45,0-3-.48-3,3.1q0,17.63,0,35.25c0,.56,0,1.12,0,1.68,0,.73-.38,1-1,1h-7.19c-.71,0-1-.36-1-1s0-1.12,0-1.68q0-17.75,0-35.49,0-1,0-1.92a.78.78,0,0,0-.88-.88h-22.3c-2,0-2,0-2-1.93,0-1.44,0-2.88,0-4.32,0-.67.3-1,1-1,.56,0,1.12,0,1.68,0Z" transform="translate(0 0)"/></svg>